<?xml version="1.0" standalone="no"?>
<!DOCTYPE svg PUBLIC "-//W3C//DTD SVG 20010904//EN"
 "http://www.w3.org/TR/2001/REC-SVG-20010904/DTD/svg10.dtd">
<svg version="1.0" xmlns="http://www.w3.org/2000/svg"
 width="1280.000000pt" height="1017.000000pt" viewBox="0 0 1280.000000 1017.000000"
 preserveAspectRatio="xMidYMid meet">

<g transform="translate(0.000000,1017.000000) scale(0.100000,-0.100000)"
fill="#000000" stroke="none">
<path d="M2088 10157 c-45 -10 -48 -12 -48 -42 0 -21 -9 -40 -27 -57 -42 -40
-152 -96 -212 -109 -49 -10 -56 -9 -83 11 -26 19 -34 20 -55 11 -15 -7 -43 -9
-67 -6 -41 6 -44 5 -80 -39 -31 -38 -43 -46 -72 -46 -44 0 -74 29 -74 73 0 17
-12 50 -25 72 -27 43 -31 74 -14 108 9 19 8 19 -11 -3 -26 -32 -50 -76 -61
-113 -10 -35 10 -90 38 -106 44 -25 44 -25 33 -75 -13 -58 0 -112 37 -156 l26
-31 17 28 c10 15 29 39 44 52 14 14 31 43 37 65 22 83 86 136 162 136 19 0 62
-14 96 -32 52 -26 65 -30 79 -20 54 39 123 53 164 31 24 -13 48 -67 48 -109 0
-37 9 -37 61 -4 24 15 50 24 61 21 17 -5 18 -2 13 22 -4 19 0 35 15 54 29 37
56 50 114 57 35 3 52 11 60 25 59 107 117 135 206 99 44 -18 60 -39 60 -78 0
-41 25 -57 84 -54 106 4 157 -72 117 -176 -10 -25 -9 -32 7 -50 26 -28 42 -60
42 -84 0 -28 -36 -69 -67 -77 -70 -17 -60 -45 15 -45 43 0 81 -14 93 -33 4 -5
5 -26 2 -46 -6 -44 15 -71 52 -71 16 0 31 -10 42 -27 9 -16 30 -43 47 -61 28
-30 29 -34 16 -55 -8 -12 -15 -35 -16 -52 -3 -38 -42 -190 -60 -233 -15 -36
-94 -92 -129 -92 -32 0 -55 31 -55 74 l0 38 -32 -27 c-27 -23 -39 -26 -82 -23
-28 3 -68 12 -89 21 l-37 17 6 -39 c4 -26 1 -49 -9 -70 -13 -26 -13 -32 0 -42
8 -7 21 -26 30 -42 25 -49 3 -104 -71 -177 -85 -84 -155 -100 -213 -47 -25 22
-29 47 -12 79 14 26 8 31 -32 23 -34 -6 -34 -7 -30 -57 4 -57 -19 -126 -50
-154 -17 -15 -34 -18 -82 -17 -45 2 -68 -2 -92 -17 -41 -25 -115 -29 -149 -7
-23 15 -46 68 -46 107 0 8 -23 34 -51 58 -43 36 -58 42 -96 42 -24 0 -53 5
-63 10 -18 10 -18 8 -5 -22 19 -48 28 -119 17 -148 -15 -38 -58 -77 -118 -105
-30 -14 -54 -29 -54 -34 0 -5 23 -33 50 -62 48 -51 57 -67 64 -115 9 -56 -80
-154 -140 -154 -15 0 -16 2 -3 13 8 6 13 11 10 10 -7 -4 -31 26 -31 39 0 11
-2 10 -9 0 -6 -10 -10 -3 -15 22 -4 19 -12 41 -19 48 -7 7 -20 25 -29 40 -25
39 -55 45 -84 17 -13 -12 -24 -21 -24 -18 -1 2 -2 30 -4 61 -2 46 -8 62 -26
78 -34 30 -75 26 -107 -10 -31 -35 -43 -36 -100 -11 -38 18 -42 24 -48 65 l-7
45 69 68 c38 37 77 82 87 98 15 26 24 30 64 32 62 2 120 28 156 69 36 43 86
59 143 46 29 -7 43 -6 46 1 2 7 8 7 18 1 8 -5 17 -9 22 -9 4 0 16 -13 26 -28
l18 -28 -4 48 c-5 43 -1 54 38 112 36 54 41 67 33 89 -15 43 -40 38 -92 -16
-67 -72 -118 -80 -180 -27 -23 19 -32 22 -42 12 -10 -10 -12 -8 -7 8 5 14 -1
11 -16 -10 -59 -78 -101 -94 -209 -76 -64 11 -109 40 -140 89 -21 34 -52 52
-89 52 -11 0 -41 -20 -67 -44 -53 -50 -87 -66 -138 -66 -31 0 -34 3 -34 29 0
100 -84 121 -120 29 -7 -18 -14 -34 -15 -35 -1 -1 -18 2 -39 8 -43 12 -97 -2
-125 -32 -10 -11 -30 -44 -46 -74 -21 -41 -35 -57 -61 -67 -18 -6 -30 -16 -27
-21 4 -6 1 -7 -6 -2 -7 4 -32 0 -57 -10 -40 -15 -47 -15 -75 -1 -43 22 -69 4
-69 -46 0 -21 2 -38 4 -38 2 0 21 6 42 14 146 51 274 13 274 -82 0 -31 -9 -48
-45 -91 -25 -29 -42 -57 -39 -63 4 -6 34 -7 79 -3 71 7 73 7 91 -20 11 -15 28
-36 38 -48 l19 -20 18 21 c9 12 22 45 29 74 7 29 19 64 27 77 l16 24 -76 -6
c-42 -4 -78 -3 -81 2 -9 13 34 62 47 54 7 -3 9 -3 5 2 -4 4 1 20 12 35 11 16
20 40 20 55 l0 26 30 -21 c17 -12 49 -46 73 -75 28 -36 62 -64 105 -86 75 -39
90 -64 99 -155 6 -63 7 -66 44 -85 54 -27 76 -24 120 15 43 39 68 39 99 -2 15
-18 20 -40 20 -85 l0 -61 29 28 c24 23 34 27 61 21 24 -5 45 -1 80 15 56 26
92 22 116 -15 14 -22 15 -35 5 -106 -13 -88 -7 -109 33 -109 42 0 66 -36 66
-100 0 -31 -6 -46 -22 -60 l-23 -18 21 -28 c11 -16 35 -32 52 -36 32 -9 34
-12 46 -85 4 -27 1 -35 -24 -53 -16 -11 -39 -36 -51 -56 -18 -31 -21 -45 -16
-98 7 -76 -8 -106 -54 -106 -29 0 -55 -20 -90 -71 -19 -28 -44 -21 -61 17 -11
23 -9 33 20 85 18 33 30 64 27 69 -3 6 -22 10 -41 10 -47 0 -70 14 -82 50 -12
34 -31 38 -67 14 -20 -13 -31 -14 -56 -5 -48 17 -73 13 -97 -12 -19 -20 -22
-35 -22 -101 0 -112 -29 -156 -105 -156 -18 0 -22 -4 -18 -19 6 -22 -38 -114
-70 -150 -45 -49 -126 -64 -193 -36 -27 11 -40 27 -60 70 -14 30 -30 53 -35
49 -5 -3 -18 -23 -29 -44 -26 -51 -70 -74 -126 -66 -40 5 -43 4 -53 -26 -6
-17 -11 -48 -11 -68 0 -26 -10 -53 -34 -87 -55 -81 -55 -88 3 -141 83 -77 92
-136 35 -220 -24 -34 -38 -67 -40 -94 -2 -25 -12 -51 -26 -66 -25 -26 -89 -62
-112 -62 -47 0 -62 -81 -23 -118 59 -55 209 -58 240 -6 6 11 13 11 30 2 12 -6
29 -14 37 -18 8 -4 16 -21 18 -38 3 -30 3 -30 -55 -37 -32 -4 -110 -15 -173
-24 l-115 -16 -3 -163 c-2 -158 -2 -163 17 -157 11 3 75 17 143 31 185 37 523
46 503 14 -3 -5 -53 -42 -110 -81 -58 -39 -103 -75 -100 -79 3 -5 31 -14 62
-20 98 -21 329 -7 568 33 297 50 295 49 295 25 0 -38 -50 -245 -75 -307 -33
-85 -88 -181 -142 -249 -53 -66 -75 -88 -161 -160 -60 -49 -67 -52 -118 -52
-64 0 -144 -18 -144 -32 0 -6 8 -7 17 -3 64 24 188 9 238 -30 15 -11 15 -13 3
-9 -14 5 -16 0 -14 -30 4 -41 -1 -43 -52 -17 -62 30 -126 42 -209 35 -108 -7
-118 -19 -17 -20 60 0 88 -4 94 -14 4 -7 15 -10 25 -7 9 4 14 3 11 -2 -3 -5 5
-17 19 -27 13 -10 20 -21 15 -24 -6 -4 -11 -36 -13 -73 -1 -37 -5 -67 -8 -67
-4 0 -34 18 -68 41 -57 38 -62 39 -77 24 -11 -10 -25 -14 -38 -11 -146 42
-257 17 -346 -80 l-35 -38 42 36 c66 58 119 81 200 86 55 3 76 1 94 -12 13 -9
29 -16 37 -16 36 0 91 -103 74 -137 -5 -10 -7 -23 -5 -29 6 -16 -43 -45 -78
-46 -17 -1 -25 -4 -20 -8 7 -4 4 -19 -8 -43 -10 -20 -15 -40 -10 -43 5 -3 2
-12 -6 -20 -8 -9 -15 -31 -15 -50 0 -19 -5 -56 -11 -80 -17 -65 -40 -73 -121
-44 -35 13 -72 24 -83 26 -11 1 -37 9 -57 18 -21 9 -54 15 -75 15 -37 -1 -36
-2 10 -9 54 -9 117 -49 148 -91 22 -31 25 -86 5 -111 -19 -26 -114 -70 -163
-76 -23 -2 -40 -8 -37 -13 3 -5 -10 -6 -28 -4 -31 5 -31 4 7 -10 25 -9 30 -13
13 -10 -16 3 -28 2 -28 -3 0 -4 -16 -14 -35 -21 -57 -20 -135 -88 -135 -116 0
-24 1 -24 67 20 83 56 148 80 236 89 87 9 162 37 222 84 37 28 63 40 114 48
36 7 80 18 96 25 44 19 47 18 60 -20 6 -19 18 -38 26 -41 8 -4 25 -12 37 -19
20 -10 27 -10 42 4 16 14 18 14 32 -7 13 -20 17 -21 32 -9 9 7 16 19 16 26 0
24 52 25 72 1 14 -15 21 -17 24 -8 3 6 10 10 14 7 5 -3 44 -7 86 -9 73 -3 77
-2 97 26 11 15 24 28 27 28 19 0 102 -86 128 -133 88 -154 225 -239 382 -236
30 0 84 -7 120 -18 51 -14 98 -18 220 -17 140 0 163 3 234 27 81 26 96 27 96
2 0 -8 15 -30 34 -49 33 -32 34 -35 24 -77 -5 -24 -8 -84 -6 -134 6 -120 26
-163 123 -259 l77 -76 -4 -67 c-4 -89 16 -91 56 -8 37 74 46 163 23 218 -9 20
-13 37 -9 37 21 0 240 -93 282 -120 73 -47 126 -110 135 -159 13 -79 43 -28
31 55 -16 122 -99 200 -311 295 -70 31 -115 58 -149 91 l-49 47 7 53 c18 154
19 224 1 257 -13 26 -14 35 -5 41 14 9 50 1 50 -10 0 -15 55 -43 90 -47 85 -9
176 -10 191 -3 27 15 71 107 67 143 -2 25 3 37 24 55 34 29 60 98 56 148 -3
34 1 42 29 62 39 27 50 28 58 2 12 -39 61 -68 137 -80 40 -6 87 -15 104 -21
50 -15 236 -11 270 6 16 8 58 22 94 31 77 19 140 15 265 -20 49 -13 91 -24 92
-23 1 1 4 13 8 27 5 21 1 28 -23 42 -17 10 -43 33 -60 53 -27 30 -30 38 -21
67 5 18 18 41 29 52 18 19 23 19 62 7 24 -7 86 -16 139 -20 103 -7 145 -24
153 -64 7 -28 16 -121 18 -169 2 -31 5 -35 19 -27 10 5 21 14 24 19 4 6 10 8
14 6 4 -3 8 7 9 22 1 15 6 28 10 30 4 1 4 39 0 83 -8 70 -7 84 8 100 26 29 68
33 131 11 34 -12 72 -18 91 -15 48 8 73 -18 70 -73 -2 -23 -5 -41 -8 -39 -3 2
-12 -1 -20 -6 -20 -14 137 -4 245 16 100 18 189 61 193 94 2 14 -3 28 -11 33
-13 7 -13 15 6 58 19 45 20 55 9 96 -17 63 -71 144 -145 217 -41 41 -85 102
-132 182 -50 86 -91 141 -145 195 -114 115 -104 59 27 -152 30 -49 51 -93 47
-100 -4 -6 -3 -8 3 -5 12 7 40 -40 30 -50 -4 -3 -7 1 -7 11 0 10 -5 14 -12 10
-6 -4 -16 0 -22 8 -10 14 -13 14 -26 0 -13 -14 -12 -15 4 -9 11 5 16 3 14 -5
-5 -13 -62 -36 -95 -37 -13 -1 -23 -5 -23 -10 0 -5 -26 -15 -57 -21 -32 -7
-61 -17 -64 -22 -3 -5 -30 -15 -60 -23 -30 -8 -55 -19 -57 -24 -2 -6 -11 -7
-19 -4 -13 5 -15 2 -10 -11 4 -10 3 -15 -4 -11 -11 7 -3 -37 12 -67 17 -32 10
-39 -33 -36 -40 3 -44 6 -57 43 -7 22 -17 56 -22 75 -8 35 -8 35 -5 -6 2 -23
0 -48 -5 -55 -7 -11 -9 -9 -9 6 0 15 -2 17 -9 6 -5 -8 -16 -11 -25 -8 -10 4
-16 1 -16 -7 0 -7 -7 -13 -15 -13 -11 0 -15 11 -15 36 0 74 42 182 104 274 14
21 26 40 26 42 0 2 -29 -16 -64 -41 -128 -89 -192 -185 -222 -331 -19 -92 -28
-113 -37 -89 -4 11 -3 15 4 10 7 -4 9 1 7 12 -2 12 -11 18 -23 16 -11 -2 -29
-5 -40 -6 -11 -2 -36 -9 -55 -16 -35 -14 -48 -13 -42 3 1 5 -2 6 -7 2 -6 -3
-7 -13 -4 -22 5 -12 3 -14 -7 -8 -10 6 -12 4 -7 -8 4 -10 2 -16 -4 -14 -6 1
-20 -15 -31 -35 -29 -54 -58 -52 -59 5 -1 23 -3 35 -6 25 -2 -9 -16 -19 -31
-23 -15 -4 -40 -12 -57 -19 -103 -44 -101 -44 -110 -8 -9 37 -34 74 -45 67 -5
-3 -21 -28 -36 -55 -15 -28 -29 -48 -32 -45 -3 3 -10 -5 -16 -17 -13 -25 -128
-76 -134 -59 -2 6 -8 11 -13 11 -4 0 -6 -7 -3 -15 4 -8 1 -15 -5 -15 -12 0
-121 129 -121 142 0 5 20 31 45 57 61 66 120 89 255 103 61 6 110 15 110 19 0
17 -129 136 -176 161 -77 41 -166 60 -265 56 l-87 -3 -26 41 c-86 135 -245
241 -414 274 l-62 13 -40 82 c-43 88 -93 146 -236 272 -98 87 -115 119 -151
282 -29 134 -26 147 29 137 22 -4 29 0 42 28 9 19 16 44 16 56 0 20 1 20 23
-6 30 -35 57 -27 57 16 0 40 -22 83 -57 108 l-27 20 30 6 c16 3 45 2 64 -4 53
-15 136 -13 154 5 19 20 45 9 39 -15 -8 -32 6 -69 32 -86 24 -16 27 -15 46 2
13 12 19 27 16 41 -3 15 1 23 9 23 8 0 14 -8 14 -18 0 -35 77 -60 120 -38 17
8 30 13 30 10 0 -2 -16 -27 -36 -54 -20 -28 -35 -52 -33 -54 2 -2 18 -11 36
-20 84 -42 248 -57 398 -35 39 5 88 12 110 14 22 2 105 15 185 29 l145 25 20
-25 c16 -20 28 -25 55 -22 30 3 36 7 40 33 l5 31 86 3 c111 3 193 -12 287 -55
97 -45 171 -64 242 -64 62 0 234 21 347 43 68 13 73 13 92 -6 27 -27 74 -16
69 16 -3 20 4 24 90 41 l92 19 49 -51 c67 -70 160 -99 348 -110 131 -8 351 0
444 17 43 7 46 6 62 -21 9 -15 25 -28 35 -28 25 0 56 35 49 55 -4 9 -1 15 8
15 8 0 15 -6 15 -14 0 -37 87 -60 129 -34 29 18 51 3 51 -35 0 -38 21 -63 45
-53 9 3 15 18 15 34 l0 29 89 -1 c77 -1 93 2 119 21 16 11 33 18 39 15 6 -4
12 -31 15 -60 7 -77 52 -117 97 -85 14 9 21 25 21 48 l0 33 93 6 c50 3 97 5
102 6 6 0 27 -3 48 -6 42 -7 67 7 67 38 0 11 11 34 25 50 22 26 25 39 23 88
-1 32 -5 57 -9 54 -4 -2 -10 26 -14 63 -8 81 -43 164 -85 203 -25 23 -29 33
-22 47 6 10 15 52 21 94 11 70 10 81 -15 170 -18 64 -40 112 -68 152 -39 57
-40 62 -37 128 2 56 -2 76 -20 108 -16 29 -20 47 -14 68 14 54 7 91 -26 139
-18 27 -44 87 -60 143 -24 84 -26 98 -13 112 18 20 18 56 -2 110 -8 24 -21 82
-28 129 -14 98 -28 110 -75 62 -21 -21 -31 -42 -36 -78 -12 -94 -36 -239 -45
-267 -5 -15 -30 -58 -55 -95 -36 -55 -45 -76 -45 -113 0 -24 -7 -66 -16 -94
-9 -27 -20 -84 -25 -125 -5 -41 -11 -90 -15 -107 -9 -46 1 -74 41 -128 20 -26
32 -51 28 -58 -4 -6 -9 -40 -12 -75 -6 -59 -9 -67 -40 -91 -19 -14 -31 -20
-27 -12 6 9 0 33 -17 65 -35 72 -46 110 -35 130 12 22 -22 166 -39 166 -18 0
-29 -30 -42 -118 -6 -41 -16 -83 -22 -95 -11 -20 -12 -20 -25 -2 -8 11 -14 44
-14 80 0 38 -5 68 -15 81 -10 13 -13 33 -8 67 5 40 2 53 -22 88 -39 60 -68
171 -53 204 9 20 8 36 -5 78 -8 29 -19 78 -22 110 -6 45 -11 57 -25 57 -34 0
-50 -35 -71 -161 -22 -127 -34 -163 -75 -212 -16 -19 -24 -41 -24 -65 0 -20
-7 -59 -15 -86 -8 -27 -15 -66 -15 -86 0 -20 -5 -51 -11 -69 -14 -39 -6 -71
26 -109 23 -27 25 -36 19 -89 -5 -47 -13 -65 -39 -93 -18 -19 -35 -44 -37 -55
-3 -14 -8 -6 -17 25 -7 25 -22 59 -34 75 -15 21 -22 47 -23 83 -1 29 -7 58
-13 65 -6 8 -8 29 -4 50 4 27 0 45 -16 71 -28 45 -50 130 -39 150 5 9 3 38 -7
75 -8 32 -15 71 -15 85 0 33 -24 35 -43 4 -8 -13 -20 -62 -26 -109 -14 -97
-46 -166 -63 -136 -5 10 -16 43 -24 75 -8 31 -31 80 -50 107 -30 44 -34 58
-34 113 0 44 -6 75 -21 103 -17 35 -19 45 -9 70 15 36 7 70 -29 123 -28 41
-65 152 -63 191 0 11 4 34 7 52 4 19 1 50 -9 80 -9 26 -19 79 -23 118 -6 54
-12 70 -25 73 -24 5 -67 -44 -72 -82 -37 -242 -44 -268 -90 -336 -35 -51 -46
-76 -46 -106 0 -21 -7 -64 -15 -94 -8 -30 -15 -72 -15 -93 0 -39 -21 -117 -31
-117 -9 0 -35 66 -54 132 -12 46 -13 61 -3 77 10 16 9 33 -5 88 -9 37 -19 89
-23 116 -7 50 -21 59 -48 32 -18 -19 -29 -59 -46 -175 -14 -96 -28 -136 -64
-182 -13 -18 -26 -49 -28 -68 -3 -32 -5 -28 -20 33 -12 47 -32 88 -65 135
l-48 67 0 100 c-1 91 -3 104 -28 146 -36 61 -35 76 11 94 69 28 100 105 67
168 -10 21 -12 34 -5 47 15 27 12 92 -5 114 -13 17 -12 21 10 38 25 19 25 19
53 -1 16 -11 40 -23 54 -26 28 -7 91 15 123 44 11 10 39 21 63 24 59 7 83 31
80 76 -3 34 -2 35 39 42 56 10 116 42 136 73 33 50 15 91 -58 129 l-30 16 45
-5 c90 -11 155 73 100 131 -18 20 -20 30 -14 86 5 57 4 67 -16 92 -13 16 -33
33 -46 37 -21 8 -22 13 -14 35 12 32 13 115 1 134 -5 8 -3 24 5 40 18 34 18
67 -2 125 -18 53 -90 136 -117 136 -23 0 -22 32 4 81 24 49 20 81 -21 137 -16
22 -40 62 -53 88 -36 70 -57 87 -107 82 -49 -4 -56 10 -41 86 11 62 0 103 -41
145 -74 75 -155 91 -211 41 -33 -28 -35 -29 -40 -10 -7 27 -65 50 -126 50 -44
0 -55 -5 -96 -40 -25 -22 -51 -40 -56 -40 -21 0 -21 35 1 76 12 24 20 50 17
58 -8 20 -49 40 -124 61 -35 10 -63 20 -63 24 0 3 18 13 39 22 74 32 74 125
-1 182 -111 85 -229 71 -278 -32 -17 -37 -29 -51 -44 -51 -28 0 -56 20 -38 27
37 15 55 66 31 90 -7 7 -6 15 6 26 13 14 20 14 38 4 12 -6 25 -16 28 -21 4 -4
10 -3 14 4 4 7 1 17 -6 22 -10 7 -9 8 6 3 11 -4 49 -8 85 -9 36 -1 74 -5 84
-10 15 -8 18 -6 11 5 -5 8 1 5 14 -5 17 -16 24 -17 34 -7 9 10 8 11 -5 6 -11
-4 -18 -2 -18 4 0 12 46 15 53 4 3 -5 1952 -7 4331 -5 l4326 2 0 90 0 90
-4534 0 c-4125 0 -4535 -1 -4547 -16 -7 -9 -43 -31 -79 -49 -60 -30 -72 -33
-128 -28 -52 5 -63 3 -68 -11 -9 -24 22 -54 63 -62 34 -6 63 -36 63 -63 0 -9
19 -32 42 -52 39 -33 42 -39 33 -65 -6 -17 -28 -38 -55 -54 -28 -16 -54 -42
-68 -68 -26 -46 -53 -59 -95 -43 -29 11 -33 27 -16 65 9 19 9 32 -1 56 -11 27
-10 34 14 69 38 55 20 95 -24 51 -11 -11 -31 -23 -46 -26 -47 -12 -77 7 -111
71 -17 33 -36 61 -41 63 -5 1 -20 -13 -32 -33 -26 -42 -47 -55 -90 -55 -39 0
-86 43 -74 68 4 9 7 33 6 52 -1 43 9 56 70 82 74 32 64 48 -32 48 -77 0 -80
-1 -80 -23 0 -55 -103 -87 -136 -42 -12 17 -11 21 8 42 l21 23 -364 -1 c-206
-1 -385 -6 -411 -12z m1543 -127 c22 -12 45 -18 51 -14 7 4 8 3 4 -4 -15 -25
-104 -5 -114 26 -5 17 13 15 59 -8z m134 -20 c4 -6 11 -8 16 -5 5 4 9 -1 9 -9
0 -9 -4 -16 -10 -16 -5 0 -10 5 -10 11 0 5 -5 7 -12 3 -7 -4 -8 -3 -4 4 5 8
-3 10 -26 7 -29 -4 -30 -4 -8 4 34 12 38 12 45 1z m-767 -142 c17 -17 15 -35
-8 -58 -23 -23 -48 -17 -60 14 -15 39 38 74 68 44z m982 -28 c0 -24 -26 -38
-42 -22 -8 8 -8 15 2 27 18 21 40 19 40 -5z m-161 -52 c19 -51 -32 -92 -88
-72 -34 12 -38 40 -10 70 31 33 86 33 98 2z m281 -103 c7 -8 10 -25 6 -40 -12
-48 -88 -62 -94 -17 -8 53 57 95 88 57z m-470 -25 c0 -13 -7 -20 -20 -20 -22
0 -23 1 -14 24 9 23 34 20 34 -4z m335 -29 c0 -8 -8 -19 -17 -25 -22 -13 -41
3 -32 28 8 20 49 18 49 -3z m-88 -122 c44 -16 80 -57 104 -118 12 -31 27 -62
32 -68 15 -21 51 -15 93 14 30 21 50 27 91 26 73 0 103 -22 103 -73 0 -72 -22
-98 -87 -103 -12 0 -20 -3 -18 -5 2 -2 -4 -20 -12 -40 -8 -20 -12 -34 -7 -30
12 13 36 -13 24 -27 -7 -8 -5 -12 5 -12 8 0 12 4 10 8 -3 4 9 10 25 13 17 3
43 9 59 12 36 7 44 -16 25 -72 -19 -55 -17 -71 9 -89 19 -12 30 -13 55 -4 36
12 67 5 56 -12 -4 -8 -3 -9 5 -5 18 12 23 -17 8 -55 -8 -18 -18 -56 -21 -84
-11 -83 -17 -105 -27 -100 -5 4 -6 0 -3 -8 8 -21 -43 -57 -80 -57 -17 1 -42 7
-55 14 -13 7 -32 11 -41 9 -9 -3 -32 2 -51 10 -31 12 -37 12 -64 -5 -49 -29
-169 -18 -149 14 4 6 3 8 -3 5 -6 -4 -16 0 -23 8 -11 13 -10 18 6 31 10 9 13
13 6 9 -7 -4 -20 -1 -29 7 -12 9 -15 9 -9 1 4 -7 3 -13 -3 -13 -5 0 -12 4 -15
9 -3 4 -38 11 -78 15 -40 3 -98 9 -129 12 l-56 6 -6 -36 c-8 -48 -45 -109 -63
-102 -8 3 -13 0 -11 -7 2 -14 -36 -21 -70 -12 -28 7 -115 84 -108 95 3 5 0 12
-6 16 -8 4 -9 3 -5 -4 5 -8 0 -12 -13 -12 -26 0 -39 45 -21 74 10 17 10 19 -1
9 -7 -7 -21 -13 -31 -13 -9 0 -27 -13 -39 -30 -12 -16 -26 -27 -31 -24 -5 3
-7 0 -6 -8 2 -7 -14 -21 -34 -31 -45 -22 -100 -11 -143 29 -25 23 -27 30 -23
86 3 45 9 64 24 75 10 8 19 19 19 25 0 13 21 25 57 33 51 10 47 61 -10 130
l-25 30 29 5 c36 6 41 30 21 97 -15 52 -9 86 17 96 20 8 43 -1 50 -19 7 -18
95 -74 116 -74 9 0 32 12 51 26 21 15 43 24 57 21 28 -5 52 25 52 68 0 37 7
49 50 80 26 19 46 25 87 25 36 0 53 4 53 13 0 27 51 87 83 96 44 13 91 13 124
0z m633 -13 c0 -8 -5 -18 -11 -22 -14 -8 -33 11 -25 25 10 16 36 13 36 -3z
m-226 -12 c23 -9 20 -50 -6 -68 -42 -30 -77 16 -41 56 18 20 23 21 47 12z
m396 -44 c11 -11 20 -23 20 -27 -2 -82 -110 -106 -118 -26 -2 24 3 36 24 52
33 26 49 26 74 1z m-550 -49 c0 -6 -4 -13 -10 -16 -5 -3 -10 1 -10 9 0 9 5 16
10 16 6 0 10 -4 10 -9z m560 -141 c0 -13 -7 -20 -20 -20 -19 0 -27 20 -13 33
13 14 33 6 33 -13z m114 -266 c10 -27 -21 -64 -53 -64 -36 0 -47 24 -26 56 18
29 69 33 79 8z m56 -39 c0 -16 -27 -32 -37 -22 -3 4 -3 13 0 22 8 20 37 20 37
0z m-4232 -298 c24 -51 9 -64 -20 -19 -33 49 -34 55 -11 50 10 -2 24 -16 31
-31z m320 2 c9 -11 34 -38 55 -59 l37 -39 -58 -63 -59 -62 -30 22 c-17 12 -36
22 -41 22 -6 0 -13 20 -16 45 -3 25 -8 65 -11 89 -5 36 -3 46 12 55 32 18 91
13 111 -10z m-198 -93 c0 -33 -10 -56 -23 -56 -12 0 -67 50 -67 61 0 4 17 10
38 12 20 2 40 4 45 5 4 1 7 -9 7 -22z m2312 -43 c13 -12 18 -31 18 -69 0 -29
4 -56 10 -59 5 -3 28 -1 50 6 49 15 87 1 92 -32 2 -12 11 -27 20 -32 28 -18
64 7 91 65 35 75 68 100 107 86 8 -4 24 -9 35 -14 11 -4 30 -6 43 -5 13 2 29
-2 36 -9 10 -8 18 -7 29 4 17 18 37 3 37 -28 0 -12 12 -43 25 -70 18 -38 23
-60 18 -92 -3 -23 0 -58 6 -77 15 -45 3 -71 -39 -85 -29 -11 -49 -37 -37 -48
3 -4 16 1 29 10 48 34 119 9 133 -47 5 -17 14 -23 45 -25 22 -1 51 -7 65 -12
31 -12 65 -66 65 -104 0 -37 -44 -113 -70 -121 -28 -9 -25 -21 10 -35 37 -15
38 -33 3 -83 -31 -45 -79 -72 -145 -82 -44 -7 -47 -9 -46 -36 1 -34 -48 -109
-80 -124 -12 -5 -27 -22 -33 -38 -6 -15 -25 -37 -41 -48 -25 -18 -40 -21 -103
-17 l-73 3 38 -35 c63 -58 75 -153 30 -228 -30 -50 -65 -67 -137 -67 l-63 0 0
-40 c-1 -76 -68 -175 -109 -160 -8 3 -33 8 -56 12 -36 4 -42 2 -54 -20 -18
-34 -56 -48 -124 -48 -110 0 -168 56 -133 128 21 43 9 55 -38 42 -76 -22 -175
-3 -190 36 -16 42 -6 73 37 113 23 23 51 48 62 57 17 13 18 16 5 25 -8 5 -24
10 -35 10 -55 0 -84 61 -50 106 24 32 18 51 -18 58 -27 5 -39 16 -63 59 l-30
52 -59 3 c-44 2 -66 9 -82 24 -28 26 -118 68 -147 68 -36 0 -46 -20 -46 -89 0
-74 -26 -143 -58 -160 -12 -6 -40 -11 -65 -11 -24 0 -46 -3 -50 -6 -3 -3 1
-24 9 -46 28 -81 12 -136 -53 -181 -89 -61 -183 -76 -220 -34 -24 27 -43 91
-43 146 0 52 -30 86 -86 95 -63 11 -72 20 -53 52 17 28 78 54 128 54 18 0 22
4 16 18 -16 37 -16 50 -2 84 14 33 14 34 -14 51 -25 14 -29 22 -29 59 0 68 9
88 38 88 18 0 43 18 88 65 34 36 69 65 77 65 18 0 26 29 16 55 -4 11 -8 60 -8
109 -1 87 -1 88 33 122 21 21 44 34 60 34 15 0 29 7 33 15 9 26 77 54 147 61
36 4 66 11 66 15 0 5 12 15 28 22 96 49 199 16 190 -60 -3 -28 0 -38 18 -50
13 -8 26 -28 29 -44 7 -32 18 -35 77 -17 37 11 38 13 31 42 -4 17 -8 48 -7 70
0 48 25 71 90 80 64 8 74 19 74 80 0 83 46 126 135 126 41 0 48 3 63 31 29 54
72 98 100 102 41 7 84 -1 104 -20z m-1564 -699 c-4 -3 -12 5 -18 18 -12 22
-12 22 6 6 10 -10 15 -20 12 -24z m-589 -906 c6 -18 7 -28 2 -23 -10 12 -25
55 -18 55 3 0 10 -15 16 -32z m3166 -89 c-8 -23 -15 -65 -15 -94 0 -39 -5 -56
-20 -70 -15 -14 -20 -15 -20 -4 0 8 -11 31 -25 52 -14 20 -21 37 -16 37 19 0
74 55 87 87 20 47 26 41 9 -8z m-3080 -84 c21 -38 33 -65 27 -60 -5 6 -29 44
-52 85 -23 41 -35 68 -27 60 8 -8 31 -46 52 -85z m652 -42 c-3 -10 -5 -4 -5
12 0 17 2 24 5 18 2 -7 2 -21 0 -30z m-343 -45 c4 -24 20 -81 36 -127 17 -47
28 -86 26 -88 -2 -2 -16 27 -31 64 -15 37 -33 83 -41 101 -16 36 -19 92 -5 92
5 0 11 -19 15 -42z m3770 -63 c-3 -11 -8 -44 -11 -73 -7 -71 -23 -77 -23 -8 0
32 -7 66 -17 83 -11 20 -14 38 -9 58 l7 28 29 -34 c20 -23 28 -41 24 -54z
m-3995 15 l33 -45 -32 35 c-17 19 -36 44 -42 55 -14 27 1 10 41 -45z m1407
-15 c0 -23 11 -50 30 -78 22 -31 29 -48 23 -62 -4 -11 -8 -37 -8 -57 -1 -27
-8 -42 -28 -58 -15 -12 -33 -34 -39 -48 l-11 -27 -12 44 c-7 25 -23 60 -36 79
-17 25 -22 43 -18 67 3 19 -1 44 -10 61 -8 16 -13 42 -10 57 4 23 10 27 37 27
18 0 41 7 52 15 27 21 30 19 30 -20z m-829 -52 c-3 -10 -5 -2 -5 17 0 19 2 27
5 18 2 -10 2 -26 0 -35z m-800 5 c-3 -8 -6 -5 -6 6 -1 11 2 17 5 13 3 -3 4
-12 1 -19z m274 -5 c13 -16 12 -17 -3 -4 -17 13 -22 21 -14 21 2 0 10 -8 17
-17z m1749 -3 c0 -5 -2 -10 -4 -10 -3 0 -8 5 -11 10 -3 6 -1 10 4 10 6 0 11
-4 11 -10z m-2013 -52 c-3 -7 -5 -2 -5 12 0 14 2 19 5 13 2 -7 2 -19 0 -25z
m3873 -126 c0 -13 -3 -12 -20 3 -11 10 -17 22 -14 27 8 12 34 -11 34 -30z
m-3830 -49 c25 -84 50 -213 41 -213 -4 0 -13 35 -21 78 -7 42 -21 103 -32 136
-20 64 -20 66 -13 66 2 0 14 -30 25 -67z m1554 -202 c-13 -13 -22 19 -16 59
l6 45 7 -50 c5 -27 6 -51 3 -54z m-157 -3 c-3 -8 -6 -5 -6 6 -1 11 2 17 5 13
3 -3 4 -12 1 -19z m10 -40 c-3 -8 -6 -5 -6 6 -1 11 2 17 5 13 3 -3 4 -12 1
-19z m10 -40 c-3 -8 -6 -5 -6 6 -1 11 2 17 5 13 3 -3 4 -12 1 -19z m-1427 -25
c0 -7 -11 -13 -24 -13 -13 0 -39 -3 -57 -6 l-34 -6 35 30 c29 25 38 28 57 19
13 -6 23 -16 23 -24z m-285 -33 c-27 -12 -43 -12 -25 0 8 5 22 9 30 9 10 0 8
-3 -5 -9z m-128 -16 c-3 -3 -12 -4 -19 -1 -8 3 -5 6 6 6 11 1 17 -2 13 -5z
m5363 -45 c0 -44 -2 -50 -15 -39 -11 9 -12 17 -5 30 6 10 10 28 10 39 0 12 2
21 5 21 3 0 5 -23 5 -51z m-4893 -11 c-3 -7 -5 -2 -5 12 0 14 2 19 5 13 2 -7
2 -19 0 -25z m1315 -91 c-3 -23 2 -39 13 -51 26 -26 49 -16 53 22 2 20 9 32
18 32 10 0 14 -14 14 -53 0 -44 -4 -58 -25 -77 l-25 -23 -40 28 c-50 35 -54
40 -73 97 l-15 47 31 4 c18 2 37 5 42 5 7 1 9 -12 7 -31z m2969 -84 c13 -16
12 -17 -3 -4 -10 7 -18 15 -18 17 0 8 8 3 21 -13z m416 -195 c-3 -8 -6 -5 -6
6 -1 11 2 17 5 13 3 -3 4 -12 1 -19z m311 15 c-10 -2 -28 -2 -40 0 -13 2 -5 4
17 4 22 1 32 -1 23 -4z m-4896 -755 c-7 -7 -12 -8 -12 -2 0 14 12 26 19 19 2
-3 -1 -11 -7 -17z m-62 -214 c0 -8 -19 -13 -24 -6 -3 5 1 9 9 9 8 0 15 -2 15
-3z m-285 -124 c8 -13 -5 -13 -25 0 -13 8 -13 10 2 10 9 0 20 -4 23 -10z
m1887 -80 c20 -6 46 -22 58 -37 18 -24 25 -23 20 2 -1 5 7 1 18 -8 29 -26 33
-73 10 -103 -25 -31 -36 -30 -100 7 -85 51 -171 89 -200 89 -14 0 -28 6 -31
13 -3 8 -10 7 -23 -7 -11 -10 -14 -16 -8 -13 19 11 118 -19 193 -58 54 -29 77
-47 86 -69 16 -39 4 -66 -30 -66 -14 0 -35 -6 -46 -12 -17 -10 -23 -10 -26 -1
-3 8 -14 11 -28 7 -30 -7 -44 15 -20 33 22 15 12 30 -25 35 -14 2 -29 13 -35
26 -5 12 -16 20 -23 17 -7 -3 -10 0 -7 5 3 6 -1 10 -9 10 -9 0 -16 7 -16 15 0
8 5 15 11 15 17 0 1 17 -21 23 -17 4 -19 3 -9 -9 7 -8 7 -14 1 -14 -10 0 -22
23 -22 41 0 17 48 40 111 54 79 17 123 18 171 5z m-1640 -50 c10 -12 18 -17
18 -10 0 10 3 10 15 0 20 -17 19 -67 -2 -78 -12 -7 -38 2 -100 34 -46 24 -92
44 -103 44 -33 0 -22 17 18 28 59 17 132 9 154 -18z m-206 -9 c-3 -5 13 -11
35 -15 54 -9 135 -51 149 -77 14 -25 6 -49 -15 -49 -9 0 -28 -8 -42 -17 -15
-10 -24 -12 -20 -5 5 7 3 12 -7 12 -8 0 -17 -6 -19 -12 -3 -7 -6 -4 -6 8 -1
11 4 25 10 31 8 8 7 13 -2 18 -8 5 -10 4 -5 -3 4 -7 5 -12 2 -12 -10 0 -46 39
-46 50 0 6 -6 9 -12 8 -8 -2 -12 6 -10 21 2 21 0 22 -15 10 -9 -8 -14 -9 -10
-2 4 6 2 13 -5 15 -13 5 -2 28 13 28 6 0 8 -4 5 -9z m2244 -12 c0 -5 -9 -9
-20 -9 -22 0 -27 16 -7 23 15 5 27 -1 27 -14z m-1800 -3 c0 -11 -19 -15 -25
-6 -3 5 1 10 9 10 9 0 16 -2 16 -4z m-98 -58 c-6 -6 -15 -8 -19 -4 -4 4 -1 11
7 16 19 12 27 3 12 -12z m1808 12 c0 -5 -5 -10 -11 -10 -5 0 -7 5 -4 10 3 6 8
10 11 10 2 0 4 -4 4 -10z m1507 -12 c-3 -8 -6 -5 -6 6 -1 11 2 17 5 13 3 -3 4
-12 1 -19z m-3187 2 c0 -5 -7 -10 -16 -10 -8 0 -12 5 -9 10 3 6 10 10 16 10 5
0 9 -4 9 -10z m1640 1 c0 -13 -29 -35 -37 -28 -7 8 15 37 28 37 5 0 9 -4 9 -9z
m171 -16 c0 -13 -41 -19 -41 -7 0 11 20 22 33 18 5 -1 8 -6 8 -11z m59 -5 c0
-5 -5 -10 -11 -10 -5 0 -7 5 -4 10 3 6 8 10 11 10 2 0 4 -4 4 -10z m1364 -27
c-3 -15 -6 -28 -7 -30 -1 -1 -27 -5 -57 -8 -50 -6 -53 -6 -35 8 17 13 96 57
102 57 1 0 -1 -12 -3 -27z m-3284 7 c0 -5 -4 -10 -10 -10 -5 0 -10 5 -10 10 0
6 5 10 10 10 6 0 10 -4 10 -10z m1842 -32 c-6 -6 -15 -8 -19 -4 -4 4 -1 11 7
16 19 12 27 3 12 -12z m-52 3 c0 -12 -20 -25 -27 -18 -7 7 6 27 18 27 5 0 9
-4 9 -9z m-495 -11 c-3 -5 -13 -10 -21 -10 -8 0 -14 5 -14 10 0 6 9 10 21 10
11 0 17 -4 14 -10z m-1180 -20 c-3 -5 -12 -10 -18 -10 -7 0 -6 4 3 10 19 12
23 12 15 0z m1085 6 c0 -11 -19 -15 -25 -6 -3 5 1 10 9 10 9 0 16 -2 16 -4z
m2126 -12 c29 -14 32 -18 19 -31 -8 -8 -15 -21 -15 -28 0 -11 -6 -12 -29 -4
-32 11 -74 -2 -52 -15 6 -4 11 -2 11 3 0 6 7 11 15 11 8 0 15 -5 15 -11 0 -5
5 -7 10 -4 6 3 10 1 10 -4 0 -14 -46 -14 -72 0 -21 11 -21 12 -2 26 38 27 -28
38 -89 14 -36 -14 -40 -14 -31 1 4 6 3 8 -4 4 -6 -3 -13 -2 -17 4 -8 13 35 29
105 39 83 13 89 12 126 -5z m292 -9 c67 -31 109 -61 123 -86 10 -19 9 -19 -10
-9 -12 6 -21 16 -21 21 0 6 -6 9 -14 6 -8 -3 -26 3 -40 14 -30 23 -78 30 -82
11 -1 -7 0 -8 3 -2 2 5 12 10 21 10 15 0 15 -1 0 -16 -12 -13 -27 -15 -67 -9
-45 6 -51 10 -51 31 0 15 9 28 28 38 37 21 49 20 110 -9z m-538 -1 c-64 -28
-123 -104 -112 -146 1 -4 -5 -5 -13 -2 -8 4 -15 1 -15 -6 0 -6 -5 -8 -12 -4
-8 5 -9 2 -5 -10 5 -13 2 -16 -12 -14 -10 2 -28 -6 -40 -16 -21 -19 -21 -19
-21 0 0 11 11 43 25 71 20 40 39 59 88 89 68 43 90 52 127 53 22 0 21 -2 -10
-15z m-1680 -24 c0 -5 -5 -10 -11 -10 -5 0 -7 5 -4 10 3 6 8 10 11 10 2 0 4
-4 4 -10z m-1670 -10 c0 -5 -4 -10 -9 -10 -6 0 -13 5 -16 10 -3 6 1 10 9 10 9
0 16 -4 16 -10z m1577 4 c-3 -3 -12 -4 -19 -1 -8 3 -5 6 6 6 11 1 17 -2 13 -5z
m1778 -7 c11 -12 7 -14 -23 -15 -35 -1 -36 0 -18 13 24 18 24 18 41 2z m290 2
c4 -5 4 -21 1 -35 -5 -17 -13 -24 -31 -24 -14 0 -25 5 -25 11 0 6 9 8 22 3 20
-6 21 -5 9 9 -14 17 -9 47 8 47 5 0 13 -5 16 -11z m-1415 -8 c0 -10 -30 -24
-37 -17 -3 3 -2 9 2 15 8 13 35 15 35 2z m-1855 -35 c35 -15 56 -43 54 -73 -1
-17 -2 -17 -6 0 -5 21 -23 23 -23 2 0 -8 -4 -15 -10 -15 -5 0 -10 -8 -10 -17
-1 -16 -2 -16 -15 2 -23 33 -69 75 -81 75 -15 0 -36 25 -27 33 11 12 83 7 118
-7z m-468 -12 c2 -6 -10 -14 -27 -17 -17 -4 -54 -28 -83 -54 -28 -27 -46 -40
-39 -31 8 9 10 23 6 29 -4 8 -3 9 4 5 7 -4 12 -3 12 2 0 5 10 21 23 35 35 41
95 58 104 31z m1668 -4 c3 -5 1 -10 -4 -10 -6 0 -11 5 -11 10 0 6 2 10 4 10 3
0 8 -4 11 -10z m-1309 -26 c33 -16 84 -67 84 -84 0 -4 -7 -11 -16 -14 -11 -4
-14 -1 -10 12 4 11 -2 21 -19 29 -20 9 -25 8 -25 -3 0 -8 -6 -14 -14 -14 -8 0
-17 -6 -19 -12 -3 -8 -6 -6 -6 5 -1 9 4 17 9 17 21 0 9 19 -22 34 -31 16 -55
13 -28 -4 8 -5 12 -12 8 -15 -3 -4 -15 2 -27 11 -19 17 -19 19 -4 36 20 22 45
23 89 2z m1399 6 c3 -5 -1 -10 -9 -10 -8 0 -18 5 -21 10 -3 6 1 10 9 10 8 0
18 -4 21 -10z m-1725 -8 c0 -11 -63 -47 -77 -44 -7 2 -13 -4 -13 -13 0 -8 -9
-16 -20 -16 -37 -3 -41 -4 -50 -19 -5 -8 -12 -12 -15 -8 -11 11 85 86 123 96
49 13 52 13 52 4z m3760 -2 c0 -5 -2 -10 -4 -10 -3 0 -8 5 -11 10 -3 6 -1 10
4 10 6 0 11 -4 11 -10z m-3700 -15 c0 -3 -16 -26 -36 -52 -42 -55 -54 -83 -54
-124 0 -31 -24 -38 -26 -8 -4 54 -4 54 -14 39 -6 -9 -10 -10 -10 -3 0 6 5 15
10 18 16 10 12 25 -5 19 -12 -5 -13 -1 -4 25 13 36 61 77 99 84 14 2 28 5 33
6 4 0 7 -1 7 -4z m118 -41 c12 -14 22 -33 21 -42 0 -10 -5 -6 -11 11 -5 15
-15 27 -21 27 -8 0 -7 -4 1 -12 7 -7 12 -19 12 -28 0 -19 -34 -42 -53 -35 -8
4 -19 -7 -28 -27 -15 -34 -39 -49 -39 -26 0 21 -40 15 -56 -7 -38 -51 -17 50
21 105 30 43 80 72 110 64 11 -3 30 -17 43 -30z m2098 0 c37 -18 74 -66 74
-96 0 -10 -5 -18 -11 -18 -6 0 -9 7 -5 15 4 10 -1 15 -14 15 -13 0 -18 -5 -14
-15 4 -9 0 -15 -10 -15 -10 0 -16 -9 -16 -25 0 -36 -11 -31 -43 20 -20 32 -43
52 -83 71 -30 14 -54 33 -54 41 0 8 -5 11 -12 7 -9 -5 -10 -4 -3 4 25 26 132
24 191 -4z m-676 -10 c17 3 30 1 30 -4 0 -6 -3 -9 -7 -8 -5 0 -15 -1 -23 -4
-8 -3 -36 -13 -62 -22 -26 -10 -64 -35 -85 -57 -39 -40 -59 -50 -50 -25 4 11
1 13 -11 9 -9 -4 -3 8 15 25 17 18 36 32 42 32 6 0 11 7 11 15 0 21 81 57 97
43 7 -6 27 -8 43 -4z m-1235 -4 c3 -5 1 -10 -4 -10 -6 0 -11 5 -11 10 0 6 2
10 4 10 3 0 8 -4 11 -10z m3818 -17 c-7 -2 -21 -2 -30 0 -10 3 -4 5 12 5 17 0
24 -2 18 -5z m-2041 -45 c49 -30 88 -75 88 -101 0 -16 -29 -32 -39 -21 -3 4 0
9 6 11 9 3 10 10 3 23 -12 22 -42 16 -33 -6 3 -8 0 -14 -7 -14 -8 0 -10 9 -6
24 3 14 2 28 -4 31 -5 3 -10 -3 -10 -14 0 -34 -38 -27 -42 7 -2 20 -8 27 -25
27 -12 0 -29 9 -38 20 -9 11 -18 16 -21 10 -15 -34 -23 -40 -36 -27 -28 28 34
75 86 65 17 -4 52 -19 78 -35z m-502 14 c0 -13 -89 -74 -99 -68 -5 3 -16 -6
-26 -20 -9 -14 -22 -23 -30 -21 -7 3 -18 0 -25 -6 -10 -9 -14 -9 -17 1 -3 8
-12 4 -25 -13 -28 -36 -35 -23 -8 14 39 55 148 118 208 120 12 1 22 -3 22 -7z
m-1460 -32 c0 -5 -4 -10 -10 -10 -5 0 -10 5 -10 10 0 6 5 10 10 10 6 0 10 -4
10 -10z m1553 4 c4 -4 -17 -32 -46 -63 -52 -57 -87 -130 -87 -181 0 -31 -15
-56 -24 -42 -3 6 -3 17 0 26 6 15 -6 21 -31 16 -5 -1 -4 4 3 11 6 7 12 20 12
29 -1 13 -3 12 -14 -2 -17 -24 -26 -23 -26 3 0 11 4 18 9 14 10 -6 36 33 28
41 -3 3 -12 -2 -21 -11 -15 -15 -16 -15 -16 0 0 30 40 94 74 120 47 36 121 56
139 39z m-1468 -14 c3 -5 1 -10 -4 -10 -6 0 -11 5 -11 10 0 6 2 10 4 10 3 0 8
-4 11 -10z m-135 -15 c-7 -9 -15 -13 -17 -11 -7 7 7 26 19 26 6 0 6 -6 -2 -15z
m1740 5 c18 -9 70 -87 70 -103 0 -4 -4 -7 -10 -7 -5 0 -10 9 -10 19 0 25 -35
68 -44 53 -3 -6 3 -16 14 -22 15 -8 20 -19 18 -38 -2 -15 -8 -26 -15 -25 -6 2
-21 -9 -32 -23 -17 -22 -22 -24 -27 -10 -10 26 -22 19 -45 -26 -32 -63 -59
-77 -59 -31 0 25 -1 25 -19 9 -19 -17 -20 -17 -23 6 -3 21 -5 20 -26 -14 -28
-45 -42 -48 -42 -10 0 60 73 176 135 213 33 21 86 25 115 9z m60 -11 c0 -6 -4
-7 -10 -4 -5 3 -10 11 -10 16 0 6 5 7 10 4 6 -3 10 -11 10 -16z m104 12 c7
-10 -18 -34 -27 -25 -7 8 3 34 13 34 5 0 11 -4 14 -9z m-1884 -21 c0 -5 -4
-10 -10 -10 -5 0 -10 5 -10 10 0 6 5 10 10 10 6 0 10 -4 10 -10z m1930 6 c0
-3 -4 -8 -10 -11 -5 -3 -10 -1 -10 4 0 6 5 11 10 11 6 0 10 -2 10 -4z m-2057
-21 c-3 -9 -8 -14 -10 -11 -3 3 -2 9 2 15 9 16 15 13 8 -4z m2292 5 c3 -5 1
-10 -4 -10 -6 0 -11 5 -11 10 0 6 2 10 4 10 3 0 8 -4 11 -10z m-915 -14 c0 -3
-4 -8 -10 -11 -5 -3 -10 -1 -10 4 0 6 5 11 10 11 6 0 10 -2 10 -4z m695 -16
c0 -7 -6 -15 -12 -17 -8 -3 -13 4 -13 17 0 13 5 20 13 18 6 -3 12 -11 12 -18z
m-117 -8 c6 -18 -15 -14 -22 4 -4 10 -1 14 6 12 6 -2 14 -10 16 -16z m322 -8
c0 -8 -4 -12 -10 -9 -5 3 -10 10 -10 16 0 5 5 9 10 9 6 0 10 -7 10 -16z m-50
-24 c0 -5 -4 -10 -10 -10 -5 0 -10 5 -10 10 0 6 5 10 10 10 6 0 10 -4 10 -10z
m-316 -35 c-4 -8 -11 -15 -16 -15 -6 0 -5 6 2 15 7 8 14 15 16 15 2 0 1 -7 -2
-15z m-30 -24 c3 -5 -1 -14 -9 -21 -13 -10 -15 -9 -15 9 0 21 14 28 24 12z
m124 -30 c3 -8 -1 -12 -9 -9 -7 2 -15 10 -17 17 -3 8 1 12 9 9 7 -2 15 -10 17
-17z m-193 -12 c-5 -15 -4 -19 4 -15 6 4 11 0 11 -8 0 -14 -3 -14 -20 -4 -20
13 -26 29 -13 41 14 14 24 6 18 -14z m340 11 c3 -5 1 -10 -4 -10 -6 0 -11 5
-11 10 0 6 2 10 4 10 3 0 8 -4 11 -10z m-495 -49 c0 -12 -20 -25 -27 -18 -7 7
6 27 18 27 5 0 9 -4 9 -9z m110 -1 c0 -5 -5 -10 -11 -10 -5 0 -7 5 -4 10 3 6
8 10 11 10 2 0 4 -4 4 -10z m240 0 c0 -5 -2 -10 -4 -10 -3 0 -8 5 -11 10 -3 6
-1 10 4 10 6 0 11 -4 11 -10z m-310 -30 c0 -5 -4 -10 -10 -10 -5 0 -10 5 -10
10 0 6 5 10 10 10 6 0 10 -4 10 -10z m-40 -24 c0 -3 -4 -8 -10 -11 -5 -3 -10
-1 -10 4 0 6 5 11 10 11 6 0 10 -2 10 -4z"/>
<path d="M4293 9025 c-3 -9 -3 -18 -1 -21 3 -3 8 4 11 16 6 23 -1 27 -10 5z"/>
<path d="M4088 8933 c7 -3 16 -2 19 1 4 3 -2 6 -13 5 -11 0 -14 -3 -6 -6z"/>
<path d="M4127 8919 c7 -7 15 -10 18 -7 3 3 -2 9 -12 12 -14 6 -15 5 -6 -5z"/>
<path d="M4386 8898 c3 -5 10 -6 15 -3 13 9 11 12 -6 12 -8 0 -12 -4 -9 -9z"/>
<path d="M4116 8877 c3 -10 9 -15 12 -12 3 3 0 11 -7 18 -10 9 -11 8 -5 -6z"/>
<path d="M3770 8826 c0 -2 7 -7 16 -10 8 -3 12 -2 9 4 -6 10 -25 14 -25 6z"/>
<path d="M3229 8793 c-12 -16 -12 -17 2 -6 11 9 19 9 26 2 8 -8 13 -7 18 3 5
7 5 10 0 6 -4 -4 -14 -3 -20 2 -9 7 -17 5 -26 -7z"/>
<path d="M3326 8799 c3 -5 12 -9 20 -9 9 0 12 -5 8 -12 -4 -7 -3 -8 4 -4 7 4
12 2 12 -5 0 -7 3 -9 6 -6 4 4 2 13 -5 21 -13 15 -54 29 -45 15z"/>
<path d="M3204 8756 c1 -8 5 -18 8 -22 4 -3 5 1 4 10 -1 8 -5 18 -8 22 -4 3
-5 -1 -4 -10z"/>
<path d="M3235 8739 c-4 -6 -5 -12 -2 -15 2 -3 7 2 10 11 7 17 1 20 -8 4z"/>
<path d="M4085 8720 c-3 -6 1 -7 9 -4 18 7 21 14 7 14 -6 0 -13 -4 -16 -10z"/>
<path d="M3425 8701 c-3 -5 -2 -12 3 -15 5 -3 9 1 9 9 0 17 -3 19 -12 6z"/>
<path d="M3395 8691 c-3 -6 5 -15 17 -21 21 -10 21 -10 6 3 -10 8 -15 17 -11
20 3 4 4 7 0 7 -3 0 -8 -4 -12 -9z"/>
<path d="M3578 7949 c-10 -5 -18 -21 -18 -35 0 -44 48 -44 74 0 9 13 7 20 -8
32 -23 16 -25 17 -48 3z"/>
<path d="M3801 7793 c-5 -11 -6 -25 -2 -32 12 -18 53 5 49 27 -5 24 -35 27
-47 5z"/>
<path d="M3460 7740 c0 -5 5 -10 10 -10 6 0 10 5 10 10 0 6 -4 10 -10 10 -5 0
-10 -4 -10 -10z"/>
<path d="M3750 7692 c-16 -13 -21 -25 -17 -36 9 -22 36 -17 54 10 12 18 12 23
0 33 -11 9 -20 7 -37 -7z"/>
<path d="M3616 7635 c-9 -25 -8 -27 17 -23 12 2 22 10 22 18 0 21 -31 24 -39
5z"/>
<path d="M3068 7503 c-26 -31 -29 -41 -12 -57 18 -19 65 -21 82 -4 7 7 12 21
12 33 0 44 -53 61 -82 28z"/>
<path d="M3507 7498 c-10 -8 -20 -22 -21 -33 -8 -48 56 -64 76 -19 20 44 -17
79 -55 52z"/>
<path d="M3083 7204 c-6 -17 14 -36 32 -31 6 2 11 13 13 25 3 17 -2 22 -18 22
-11 0 -23 -7 -27 -16z"/>
<path d="M3284 7139 c-10 -17 13 -36 27 -22 12 12 4 33 -11 33 -5 0 -12 -5
-16 -11z"/>
<path d="M2777 7095 c-7 -16 8 -29 23 -20 15 9 12 35 -4 35 -8 0 -16 -7 -19
-15z"/>
<path d="M2624 7025 c-17 -26 -12 -60 11 -69 21 -8 41 2 60 30 13 20 13 27 3
44 -17 28 -54 25 -74 -5z"/>
<path d="M2845 6935 c-42 -41 -28 -85 27 -85 32 0 68 31 68 59 0 21 -35 51
-58 51 -7 0 -24 -11 -37 -25z"/>
<path d="M3062 6948 c-18 -18 -14 -46 7 -53 36 -11 67 17 55 50 -7 18 -45 20
-62 3z"/>
<path d="M2927 6853 c-15 -14 -7 -43 12 -43 20 0 35 25 25 41 -6 11 -28 12
-37 2z"/>
<path d="M2485 4340 c4 -6 11 -8 16 -4 6 3 19 -2 29 -11 18 -16 19 -16 17 4
-1 17 -8 21 -35 21 -20 0 -31 -4 -27 -10z"/>
<path d="M2580 4343 c8 -3 21 -10 28 -16 7 -5 15 -7 19 -3 10 9 0 15 -33 20
-16 2 -22 1 -14 -1z"/>
<path d="M875 4310 c3 -5 8 -10 11 -10 2 0 4 5 4 10 0 6 -5 10 -11 10 -5 0 -7
-4 -4 -10z"/>
<path d="M920 4316 c0 -2 7 -6 15 -10 8 -3 15 -1 15 4 0 6 -7 10 -15 10 -8 0
-15 -2 -15 -4z"/>
<path d="M4430 4175 c-14 -8 -20 -14 -15 -14 6 0 21 6 35 14 14 8 21 14 15 14
-5 0 -21 -6 -35 -14z"/>
<path d="M4701 4103 c0 -12 -7 -23 -13 -26 -7 -2 0 -4 16 -4 15 0 24 2 18 6
-5 3 -12 15 -15 26 -4 19 -5 19 -6 -2z"/>
<path d="M1268 4023 c7 -3 16 -2 19 1 4 3 -2 6 -13 5 -11 0 -14 -3 -6 -6z"/>
<path d="M1287 4003 c-3 -5 5 -8 18 -8 13 0 21 3 18 8 -2 4 -10 7 -18 7 -8 0
-16 -3 -18 -7z"/>
<path d="M3090 3920 c0 -5 4 -10 9 -10 6 0 13 5 16 10 3 6 -1 10 -9 10 -9 0
-16 -4 -16 -10z"/>
<path d="M3145 3893 c-36 -9 -36 -19 0 -15 19 2 32 8 29 13 -3 5 -6 8 -7 8 -1
-1 -11 -3 -22 -6z"/>
<path d="M3820 9991 c0 -6 4 -13 10 -16 6 -3 7 1 4 9 -7 18 -14 21 -14 7z"/>
<path d="M12337 9763 c20 -3 41 -15 53 -30 18 -23 23 -25 44 -14 13 7 39 17
57 21 31 7 31 8 7 9 -15 1 -38 -3 -51 -8 -18 -7 -31 -5 -53 10 -16 10 -42 18
-59 17 l-30 -1 32 -4z"/>
<path d="M11670 9750 c-8 -5 -31 -7 -50 -4 l-35 6 27 -15 c25 -14 30 -14 65 4
20 10 31 19 23 19 -8 0 -22 -5 -30 -10z"/>
<path d="M10974 9741 c4 -6 16 -11 26 -11 10 0 28 -12 39 -26 18 -22 22 -24
43 -13 13 7 41 16 63 20 l40 6 -38 2 c-21 0 -47 -3 -57 -9 -13 -7 -24 -5 -42
10 -29 23 -85 39 -74 21z"/>
<path d="M10265 9712 c24 -16 33 -17 45 -7 8 7 22 15 30 19 8 3 4 3 -10 0 -34
-8 -52 -8 -75 1 -11 4 -6 -2 10 -13z"/>
<path d="M12126 9625 c10 -8 23 -15 28 -15 6 0 1 7 -10 15 -10 8 -23 15 -28
15 -6 0 -1 -7 10 -15z"/>
<path d="M12178 9623 c7 -3 16 -2 19 1 4 3 -2 6 -13 5 -11 0 -14 -3 -6 -6z"/>
<path d="M10781 9597 c12 -14 20 -16 40 -7 l24 11 -24 -5 c-14 -3 -32 0 -40 6
-14 11 -14 10 0 -5z"/>
<path d="M11677 9373 c13 -2 32 -16 42 -30 l20 -25 53 21 c58 22 55 27 -5 10
-32 -9 -41 -7 -64 10 -14 12 -35 20 -47 20 -20 -2 -20 -2 1 -6z"/>
<path d="M10959 9344 c21 -15 24 -15 39 1 16 16 16 17 -5 6 -14 -7 -24 -8 -28
-1 -3 5 -11 10 -18 10 -6 0 -1 -7 12 -16z"/>
<path d="M11464 9233 c10 -13 23 -20 29 -16 7 4 6 8 -3 11 -8 3 -22 10 -30 16
-8 6 -7 1 4 -11z"/>
<path d="M10316 9220 c12 -5 29 -19 38 -31 13 -19 19 -21 38 -11 13 6 33 14
46 17 41 12 18 14 -26 3 -39 -10 -45 -9 -63 11 -11 11 -27 21 -37 20 -13 0
-12 -2 4 -9z"/>
<path d="M9582 9194 c11 -11 21 -14 26 -9 4 6 6 9 3 8 -2 -1 -13 3 -25 9 -20
10 -20 10 -4 -8z"/>
<path d="M10092 9084 c9 -9 21 -15 27 -13 6 2 -2 10 -17 17 -25 11 -25 11 -10
-4z"/>
<path d="M0 8951 c0 -99 0 -100 30 -121 34 -24 41 -10 14 28 -18 26 -12 52 10
52 21 0 31 46 18 75 -6 12 -24 32 -41 44 l-31 22 0 -100z"/>
<path d="M8932 8810 c28 -28 31 -29 51 -14 l22 16 -23 -7 c-17 -5 -29 -1 -43
14 -11 12 -24 21 -29 21 -4 0 5 -14 22 -30z"/>
<path d="M9023 8813 c9 -2 25 -2 35 0 9 3 1 5 -18 5 -19 0 -27 -2 -17 -5z"/>
<path d="M12475 8748 c11 -6 27 -19 35 -28 14 -15 19 -15 65 1 28 10 43 18 34
19 -9 0 -30 -5 -47 -11 -27 -9 -35 -8 -58 10 -15 12 -32 21 -38 21 -6 0 -2 -6
9 -12z"/>
<path d="M11786 8731 c-12 -5 -15 -10 -9 -14 6 -4 16 0 23 8 14 17 13 17 -14
6z"/>
<path d="M8682 8694 c10 -10 20 -16 22 -13 3 3 -5 11 -17 18 -21 13 -21 12 -5
-5z"/>
<path d="M10420 8439 c14 -5 32 -20 42 -32 14 -18 20 -20 40 -10 12 7 32 14
43 17 11 3 1 3 -23 0 -33 -3 -49 0 -69 16 -14 11 -33 20 -42 19 -9 0 -6 -4 9
-10z"/>
<path d="M9689 8414 c17 -13 25 -14 34 -5 9 9 8 11 -4 6 -10 -4 -20 -2 -24 4
-3 6 -11 11 -18 11 -6 0 -1 -7 12 -16z"/>
<path d="M880 7972 c-29 -23 -21 -52 13 -52 32 0 54 26 41 48 -15 24 -28 25
-54 4z"/>
<path d="M1053 7865 c-3 -9 -3 -18 0 -22 10 -10 37 6 37 22 0 20 -29 20 -37 0z"/>
<path d="M1197 7802 c-10 -10 -17 -32 -17 -48 0 -25 7 -33 35 -47 52 -25 94
-1 95 54 0 53 -77 81 -113 41z"/>
<path d="M1092 7613 c-23 -5 -45 -31 -57 -70 -9 -32 34 -73 75 -73 36 0 90 47
90 78 0 43 -52 75 -108 65z"/>
<path d="M1335 7600 c-8 -13 4 -32 16 -25 12 8 12 35 0 35 -6 0 -13 -4 -16
-10z"/>
<path d="M1025 7469 c-10 -15 1 -23 20 -15 9 3 13 10 10 16 -8 13 -22 13 -30
-1z"/>
<path d="M1288 7459 c-24 -13 -23 -46 1 -59 34 -18 67 30 39 58 -14 14 -18 14
-40 1z"/>
<path d="M260 7185 c-16 -19 -5 -47 17 -43 23 4 31 58 10 58 -8 0 -20 -7 -27
-15z"/>
<path d="M575 7131 c-6 -11 9 -23 19 -14 9 9 7 23 -3 23 -6 0 -12 -4 -16 -9z"/>
<path d="M715 7129 c-10 -15 3 -25 16 -12 7 7 7 13 1 17 -6 3 -14 1 -17 -5z"/>
<path d="M633 7040 c-44 -18 -51 -69 -12 -90 29 -16 57 -11 73 12 21 30 20 44
-4 68 -22 22 -25 23 -57 10z"/>
<path d="M100 6914 c0 -17 22 -14 28 4 2 7 -3 12 -12 12 -9 0 -16 -7 -16 -16z"/>
<path d="M13 6353 c-16 -6 -18 -99 -3 -108 20 -12 52 8 66 41 17 41 17 39 -2
58 -15 16 -37 19 -61 9z"/>
<path d="M8678 5413 c7 -3 16 -2 19 1 4 3 -2 6 -13 5 -11 0 -14 -3 -6 -6z"/>
<path d="M12348 5343 c7 -3 16 -2 19 1 4 3 -2 6 -13 5 -11 0 -14 -3 -6 -6z"/>
<path d="M10534 5294 c-18 -14 -18 -15 4 -4 12 6 22 13 22 15 0 8 -5 6 -26
-11z"/>
<path d="M10495 5270 c-3 -5 -1 -10 4 -10 6 0 11 5 11 10 0 6 -2 10 -4 10 -3
0 -8 -4 -11 -10z"/>
<path d="M10389 5209 c-10 -6 -7 -9 14 -9 29 0 35 5 14 13 -8 3 -20 1 -28 -4z"/>
<path d="M11583 5203 c65 -2 168 -2 230 0 62 1 9 3 -118 3 -126 0 -177 -2
-112 -3z"/>
<path d="M10498 5193 c12 -2 32 -2 45 0 12 2 2 4 -23 4 -25 0 -35 -2 -22 -4z"/>
<path d="M11158 5193 c46 -2 118 -2 160 0 42 1 5 3 -83 3 -88 0 -123 -2 -77
-3z"/>
<path d="M12028 5193 c46 -2 118 -2 160 0 42 1 5 3 -83 3 -88 0 -123 -2 -77
-3z"/>
<path d="M10623 5183 c9 -2 25 -2 35 0 9 3 1 5 -18 5 -19 0 -27 -2 -17 -5z"/>
<path d="M10883 5183 c32 -2 81 -2 110 0 29 2 3 3 -58 3 -60 0 -84 -1 -52 -3z"/>
<path d="M12490 5175 c233 -15 285 -17 279 -10 -7 6 -120 13 -319 19 l-165 5
205 -14z"/>
<path d="M10733 5173 c15 -2 37 -2 50 0 12 2 0 4 -28 4 -27 0 -38 -2 -22 -4z"/>
<path d="M3148 4603 c7 -3 16 -2 19 1 4 3 -2 6 -13 5 -11 0 -14 -3 -6 -6z"/>
<path d="M280 4365 c-7 -8 -17 -12 -23 -8 -6 4 -8 0 -4 -9 4 -12 1 -14 -14
-11 -11 3 -19 0 -19 -6 0 -7 -4 -10 -9 -6 -5 3 -13 0 -17 -6 -4 -8 -9 -7 -15
2 -5 8 -9 9 -9 3 0 -6 -38 -28 -85 -49 l-85 -38 0 -134 0 -134 87 3 88 3 6 71
c10 110 62 261 108 317 8 9 12 17 9 17 -3 0 -11 -7 -18 -15z"/>
<path d="M12370 4204 c-8 -1 -41 -6 -72 -9 -32 -4 -58 -10 -58 -15 0 -4 30
-11 68 -14 169 -17 309 -51 378 -91 16 -9 21 -14 10 -10 -38 11 -196 18 -196
8 0 -6 23 -27 52 -47 29 -20 47 -36 41 -36 -6 0 -182 16 -390 35 -530 48 -853
65 -853 45 0 -5 18 -10 40 -10 47 0 143 -30 209 -66 l46 -24 -55 6 c-30 3
-100 15 -155 25 -131 25 -240 35 -232 22 4 -6 35 -20 69 -33 35 -12 99 -41
143 -64 70 -36 76 -41 52 -44 -15 -2 -96 9 -180 23 -318 56 -457 69 -471 46
-3 -5 18 -15 47 -21 61 -15 160 -50 155 -56 -4 -3 -248 33 -512 76 -115 19
-148 19 -116 0 56 -32 51 -37 -21 -19 -40 11 -139 24 -219 30 -80 6 -175 14
-212 18 -74 8 -91 -2 -30 -18 150 -41 426 -149 347 -136 -16 3 -120 16 -230
30 -299 38 -563 82 -670 112 -14 4 -17 2 -9 -6 5 -6 68 -32 140 -57 125 -44
288 -114 281 -121 -2 -2 -116 19 -253 46 -137 27 -292 54 -344 61 -52 6 -105
16 -117 20 -24 10 -53 4 -53 -11 0 -5 15 -9 33 -9 26 0 137 -52 137 -64 0 -1
-25 6 -56 16 -81 27 -334 50 -334 29 0 -4 26 -18 58 -29 31 -12 73 -35 92 -52
31 -27 32 -29 9 -21 -107 38 -432 89 -452 71 -5 -4 11 -15 35 -24 41 -15 41
-16 8 -11 -143 23 -412 36 -427 22 -2 -3 8 -13 24 -22 l28 -16 -30 5 c-52 9
-185 19 -185 14 0 -3 18 -18 41 -32 22 -15 39 -29 37 -30 -1 -2 -41 3 -88 10
-111 17 -454 17 -598 0 -62 -7 -115 -16 -118 -19 -3 -3 24 -15 60 -27 36 -12
66 -23 66 -24 0 -1 -49 0 -109 2 -60 2 -121 2 -135 -2 -29 -7 -35 -26 -8 -26
9 -1 33 -9 52 -20 l35 -19 -92 -1 c-110 0 -276 -22 -433 -57 -63 -14 -127 -28
-142 -30 -43 -8 -33 -23 15 -24 23 0 60 -4 82 -8 35 -7 37 -8 15 -14 -14 -3
-66 -10 -115 -16 -85 -10 -180 -34 -198 -51 -5 -4 31 -10 80 -14 111 -9 283
-35 303 -47 10 -5 -9 -9 -51 -9 -78 0 -129 -9 -129 -22 0 -5 3 -7 8 -5 24 15
384 -25 508 -57 51 -13 51 -13 115 25 123 75 318 143 497 174 143 24 390 44
697 55 450 15 555 23 1105 81 345 36 357 38 595 99 306 78 354 85 635 84 185
0 314 -7 525 -27 548 -52 716 -54 1175 -12 181 17 260 28 363 51 l67 16 0 192
0 193 -82 6 c-83 7 -320 8 -348 1z"/>
<path d="M3940 4161 c0 -5 -15 -13 -32 -17 -20 -4 -27 -9 -18 -12 8 -3 19 -10
23 -16 6 -7 7 -4 3 7 -4 12 0 17 14 17 11 0 20 7 20 15 0 8 -2 15 -5 15 -3 0
-5 -4 -5 -9z"/>
<path d="M3835 4109 c-11 -16 -1 -19 13 -3 7 8 8 14 3 14 -5 0 -13 -5 -16 -11z"/>
<path d="M3865 4100 c-13 -6 -15 -9 -5 -9 8 0 22 4 30 9 18 12 2 12 -25 0z"/>
<path d="M560 4020 c0 -5 5 -10 11 -10 5 0 7 5 4 10 -3 6 -8 10 -11 10 -2 0
-4 -4 -4 -10z"/>
<path d="M562 3980 c0 -14 2 -19 5 -12 2 6 2 18 0 25 -3 6 -5 1 -5 -13z"/>
<path d="M3497 3978 c-8 -5 -5 -8 8 -8 11 0 27 5 35 10 12 7 10 9 -8 7 -13 -1
-28 -5 -35 -9z"/>
<path d="M4660 3815 c0 -5 5 -17 10 -25 5 -8 10 -10 10 -5 0 6 -5 17 -10 25
-5 8 -10 11 -10 5z"/>
<path d="M4650 3778 c0 -9 -6 -19 -12 -21 -10 -4 -10 -6 0 -6 14 -1 28 26 18
36 -3 4 -6 -1 -6 -9z"/>
<path d="M4200 3773 c0 -4 5 -15 10 -23 8 -13 10 -13 10 2 0 9 -4 20 -10 23
-5 3 -10 3 -10 -2z"/>
<path d="M4178 3743 c7 -3 16 -2 19 1 4 3 -2 6 -13 5 -11 0 -14 -3 -6 -6z"/>
<path d="M4478 3733 c6 -2 18 -2 25 0 6 3 1 5 -13 5 -14 0 -19 -2 -12 -5z"/>
<path d="M4550 3730 c12 -8 12 -10 1 -10 -8 0 -12 -2 -9 -5 3 -3 13 -2 22 1
14 5 15 9 4 15 -7 5 -17 9 -23 9 -5 0 -3 -5 5 -10z"/>
<path d="M7 3723 c7 -2 19 -2 26 0 6 3 1 5 -13 5 -14 0 -19 -2 -13 -5z"/>
<path d="M4440 3720 c-9 -6 -10 -10 -3 -10 6 0 15 5 18 10 8 12 4 12 -15 0z"/>
<path d="M3916 3623 c9 -21 29 -65 46 -97 22 -45 26 -61 16 -67 -7 -4 -18 -3
-25 3 -10 8 -13 6 -13 -6 0 -10 -5 -14 -11 -11 -11 7 -137 -23 -156 -37 -7 -5
-13 -4 -17 4 -3 7 -3 -13 0 -44 3 -36 2 -58 -5 -58 -19 0 -51 53 -52 89 l-2
36 -7 -35 c-4 -19 -8 -31 -9 -27 0 4 -9 3 -20 -2 -17 -10 -18 -7 -10 37 5 26
22 68 39 95 16 26 27 47 24 47 -12 0 -71 -46 -101 -79 -18 -19 -42 -62 -54
-95 -13 -34 -25 -53 -28 -45 -10 23 -34 23 -26 -1 4 -11 2 -20 -4 -20 -6 0
-11 8 -11 17 0 15 -2 14 -16 -3 -15 -19 -15 -18 -11 4 7 30 4 28 -27 -18 -31
-47 -48 -50 -64 -12 -7 17 -9 19 -6 5 4 -16 0 -22 -13 -22 -10 1 -28 -2 -40
-6 -17 -6 -25 -1 -39 26 -16 31 -18 32 -28 15 -6 -10 -20 -30 -31 -43 -18 -21
-24 -23 -48 -14 -18 7 -26 7 -22 1 3 -6 12 -10 18 -10 7 0 26 -11 42 -24 l30
-24 17 46 16 47 1 -42 1 -43 20 20 c35 35 107 56 77 22 -10 -10 -14 -22 -10
-26 4 -4 0 -4 -8 -1 -15 6 -47 -20 -38 -30 3 -2 24 2 47 10 41 15 77 11 66 -6
-3 -5 -13 -9 -22 -9 -9 -1 -30 -7 -47 -14 -27 -12 -15 -13 115 -17 302 -7 552
0 597 17 107 40 110 131 8 244 -12 14 -41 60 -64 103 -64 117 -131 187 -95
100z"/>
<path d="M3040 3274 c-27 -69 -5 -101 65 -96 53 5 43 22 -12 22 -18 0 -33 5
-33 10 0 6 20 10 44 10 25 0 48 -4 51 -10 3 -5 11 -10 17 -10 7 0 6 6 -2 15
-7 8 -21 15 -33 15 -18 0 -67 45 -67 63 0 18 -21 5 -30 -19z"/>
<path d="M3310 3289 c0 -5 5 -7 10 -4 6 3 10 8 10 11 0 2 -4 4 -10 4 -5 0 -10
-5 -10 -11z"/>
<path d="M6940 3198 c-39 -16 -8 -20 36 -4 31 12 34 15 14 15 -14 0 -36 -5
-50 -11z"/>
<path d="M3105 3149 c3 -3 21 -10 40 -13 38 -7 42 -14 23 -35 -11 -11 -9 -11
10 -2 19 10 22 9 22 -5 0 -15 2 -15 21 2 20 18 21 18 35 -1 14 -18 14 -18 14
3 0 22 1 22 25 6 23 -15 25 -15 25 0 0 9 10 21 23 26 17 8 12 9 -26 6 -36 -2
-50 1 -57 13 -7 12 -9 12 -10 2 0 -11 -3 -11 -15 -1 -12 10 -15 10 -15 0 0
-10 -3 -10 -15 0 -8 7 -15 8 -15 3 0 -6 -18 -7 -45 -3 -24 4 -42 3 -40 -1z"/>
<path d="M10840 3145 c0 -21 19 -56 106 -202 76 -124 81 -137 64 -163 -7 -11
-8 -6 -5 19 2 18 1 30 -2 27 -3 -3 -13 0 -22 7 -14 11 -14 10 -2 -6 12 -15 12
-19 -5 -32 -10 -8 -24 -15 -31 -15 -7 0 -34 -7 -60 -16 -45 -14 -57 -19 -115
-44 -13 -5 -46 -17 -75 -25 -41 -13 -53 -22 -58 -43 -4 -15 -10 -21 -12 -14
-3 6 -10 9 -15 6 -7 -4 -8 -2 -4 4 4 7 2 12 -3 12 -6 0 -11 -8 -11 -19 0 -17
-10 -19 -97 -23 -54 -3 -100 -4 -101 -2 -2 1 2 29 8 61 13 60 49 141 94 206
14 21 26 40 26 43 0 13 -127 -86 -169 -132 -48 -53 -93 -133 -105 -191 -7 -29
-14 -34 -89 -60 -45 -15 -88 -27 -94 -27 -7 1 -11 -2 -8 -6 3 -4 -2 -14 -11
-21 -9 -7 -29 -39 -45 -72 -36 -71 -62 -75 -67 -12 -3 40 -3 40 -43 40 -39 0
-38 -2 16 -20 11 -4 16 -9 10 -10 -142 -40 -176 -59 -158 -88 3 -7 2 -8 -3 -4
-5 5 -18 34 -30 65 -12 32 -27 57 -35 57 -7 0 -25 -20 -38 -45 -38 -68 -61
-88 -140 -120 l-74 -30 -33 37 c-18 21 -44 53 -56 70 -13 18 -26 33 -29 33 -8
0 -26 -44 -35 -85 -4 -16 -19 -42 -35 -57 -59 -55 -44 -118 33 -138 47 -12 76
-25 158 -71 l55 -31 141 6 c78 3 148 7 155 8 7 2 14 -3 15 -9 1 -7 2 -17 3
-23 0 -5 12 -17 26 -26 24 -15 30 -15 85 0 33 10 64 15 69 11 5 -3 12 -1 16 5
3 5 11 10 17 10 6 0 -15 -19 -48 -41 -32 -23 -64 -49 -71 -58 -17 -22 -16 -66
1 -84 8 -8 12 -23 10 -35 -7 -25 138 -209 199 -253 23 -17 46 -37 50 -45 4 -8
25 -23 45 -33 25 -13 32 -21 22 -24 -136 -44 -191 -74 -307 -168 l-72 -59 -69
6 c-39 4 -75 10 -81 14 -8 5 -8 28 1 84 8 55 9 85 1 105 -13 35 -2 56 37 76
39 20 38 31 -3 48 -56 24 -157 38 -308 43 -142 5 -150 4 -235 -24 -49 -16
-101 -32 -116 -36 -39 -9 -143 -109 -168 -162 -14 -28 -21 -57 -18 -78 l4 -33
-27 19 -26 20 18 38 c25 51 25 135 0 192 -21 50 -88 115 -128 124 -16 3 -48
12 -73 20 -113 37 -316 27 -472 -22 -93 -29 -135 -62 -144 -111 -9 -46 9 -83
85 -171 l60 -69 -42 -13 c-95 -28 -177 -86 -177 -125 0 -13 5 -27 10 -30 6 -4
8 -11 4 -16 -8 -14 103 -156 142 -180 19 -11 34 -25 34 -30 0 -5 11 -15 25
-21 24 -11 23 -12 -41 -39 -113 -48 -218 -140 -265 -232 -35 -68 -62 -184 -45
-191 6 -2 3 -5 -8 -5 -14 -1 -17 4 -14 24 3 14 1 25 -3 25 -5 0 -9 -8 -9 -17
0 -15 -2 -16 -10 -3 -8 13 -10 13 -10 -2 0 -9 -4 -20 -10 -23 -6 -3 -7 1 -4
12 5 15 4 15 -7 -1 -9 -15 -9 -21 -1 -24 19 -6 14 -34 -5 -30 -10 2 -17 12
-16 22 1 11 -4 15 -14 12 -9 -4 -13 -1 -10 6 2 7 13 11 23 10 14 -3 16 -1 8 8
-9 9 -17 9 -33 1 -12 -7 -21 -8 -21 -4 0 4 -24 7 -52 7 -40 -1 -55 3 -61 15
-5 11 -6 9 -3 -6 2 -13 -1 -26 -6 -29 -7 -5 -8 8 -4 39 6 37 3 54 -15 88 -20
41 -20 43 -3 56 16 12 16 13 -10 13 -23 0 -57 -31 -191 -167 -183 -187 -175
-172 -154 -303 7 -47 17 -73 36 -93 l27 -27 471 0 472 0 10 22 10 23 7 -22 c6
-20 14 -23 62 -23 41 0 54 4 54 15 0 8 5 15 10 15 6 0 10 -7 10 -15 0 -23 457
-22 502 1 26 13 35 14 55 3 20 -11 26 -11 33 1 7 12 10 12 16 -3 6 -16 33 -17
326 -17 l319 0 20 42 c12 24 27 55 36 71 12 23 12 37 3 83 -7 31 -10 57 -8 58
1 1 15 9 29 18 41 26 100 121 120 195 23 81 24 138 4 186 -16 39 -12 47 24 47
14 0 41 9 59 20 35 21 37 18 22 -26 -20 -59 -28 -158 -15 -184 7 -14 15 -42
19 -64 10 -51 37 -106 53 -106 7 0 18 9 25 19 8 14 16 17 24 10 8 -6 30 5 70
36 l58 46 14 -27 c8 -14 19 -23 27 -20 9 3 14 -7 17 -32 5 -36 0 -41 -119
-163 -118 -120 -123 -127 -123 -167 l0 -42 602 0 603 0 105 37 c58 20 109 40
115 45 15 13 69 9 93 -8 12 -8 35 -14 50 -13 15 1 40 -2 56 -6 18 -5 36 -4 48
4 14 9 23 8 42 -4 35 -23 82 -35 94 -23 6 6 23 6 48 0 119 -31 153 -33 557
-32 l417 1 0 145 0 145 -205 -3 c-152 -2 -206 0 -209 9 -3 6 -1 27 5 45 11 41
12 71 0 64 -10 -6 -24 101 -15 115 3 5 0 8 -8 7 -7 -2 -14 7 -16 18 -2 16 3
23 21 28 14 3 48 31 76 62 117 128 183 372 134 496 -21 55 -72 135 -108 171
-15 15 -26 28 -24 30 2 1 34 17 71 36 43 21 85 52 116 85 50 56 117 170 108
185 -8 13 12 62 35 87 17 18 19 33 17 95 -3 66 -5 74 -23 74 -11 1 -45 9 -76
18 -36 11 -96 18 -163 20 -73 1 -107 6 -110 14 -3 7 -13 13 -21 13 -11 0 -15
6 -11 18 26 82 33 218 15 271 -14 40 1 64 56 95 45 25 55 43 28 52 -10 3 -32
12 -48 20 -50 21 -113 32 -276 48 -224 22 -372 16 -479 -19 -47 -15 -101 -35
-120 -44 -19 -10 -43 -16 -52 -14 -9 3 -27 -2 -40 -11 -13 -8 -34 -12 -50 -9
-31 6 -34 13 -16 31 12 12 14 87 3 121 -4 14 -20 25 -49 32 -31 8 -47 19 -61
42 -10 18 -53 68 -95 112 -48 50 -100 120 -141 188 -64 109 -145 209 -200 247
-25 18 -29 19 -29 5z m-167 -512 c-7 -2 -19 -2 -25 0 -7 3 -2 5 12 5 14 0 19
-2 13 -5z m94 -9 c-3 -3 -12 -4 -19 -1 -8 3 -5 6 6 6 11 1 17 -2 13 -5z m77
-40 c107 -27 168 -75 180 -138 8 -43 15 -45 47 -13 l31 31 -36 33 c-42 39 -37
44 10 8 58 -45 87 -92 97 -159 12 -85 10 -125 -11 -165 -43 -81 -120 -99 -207
-46 -89 54 -238 134 -383 206 -108 54 -162 74 -225 86 -132 25 -167 35 -167
49 0 20 13 24 75 25 47 1 54 4 43 15 -11 11 -23 11 -73 -1 -72 -17 -75 -17
-75 -6 0 5 10 11 23 14 12 2 77 19 144 36 66 17 154 35 195 41 94 11 255 4
332 -16z m-724 -103 c-34 -22 -66 -54 -72 -72 -3 -8 -9 -11 -13 -7 -12 12 27
65 64 86 41 24 59 18 21 -7z m926 -18 c-10 -10 -19 5 -10 18 6 11 8 11 12 0 2
-7 1 -15 -2 -18z m-788 -48 c135 -32 336 -116 484 -204 87 -51 130 -91 166
-152 42 -71 20 -163 -47 -195 -31 -15 -37 -15 -74 0 l-41 16 -37 -40 c-27 -29
-45 -40 -66 -40 -32 0 -53 16 -53 40 0 14 -7 16 -44 10 -133 -20 -174 44 -63
100 16 8 33 22 38 32 13 23 -20 44 -86 53 -65 9 -152 50 -160 76 -4 11 -4 32
-1 47 6 25 3 28 -36 40 -79 25 -108 43 -108 67 0 16 10 26 38 37 l37 15 -50
22 c-92 40 -109 57 -85 86 16 19 73 16 188 -10z m1730 -12 c4 -28 -27 -45 -76
-41 -49 4 -53 29 -10 51 45 22 82 18 86 -10z m-1938 -33 c0 -5 -4 -10 -10 -10
-5 0 -10 5 -10 10 0 6 5 10 10 10 6 0 10 -4 10 -10z m58 -48 c3 -10 -4 -13
-24 -10 -15 2 -29 9 -32 16 -3 10 4 13 24 10 15 -2 29 -9 32 -16z m-303 -32
c3 -6 -1 -7 -9 -4 -18 7 -21 14 -7 14 6 0 13 -4 16 -10z m1915 -43 c0 -20 -22
-37 -48 -37 -29 0 -25 20 9 37 31 16 39 16 39 0z m-1684 -13 c-3 -8 -2 -12 3
-9 5 3 12 2 15 -3 2 -4 -4 -9 -15 -9 -13 -1 -19 5 -19 18 0 10 5 19 11 19 6 0
8 -7 5 -16z m1262 -11 c-21 -24 -56 -105 -64 -148 -13 -70 51 -172 123 -196
47 -15 119 -13 172 6 l43 15 -24 -33 c-130 -170 -228 -366 -287 -572 l-18 -59
-6 49 c-4 28 -19 97 -34 154 -26 101 -26 103 -7 114 10 5 35 27 55 48 45 46
64 116 55 202 -8 78 -38 140 -98 200 l-48 48 19 37 c10 20 24 55 31 77 7 22
15 34 17 28 7 -20 21 -15 50 17 14 17 29 30 31 30 3 0 -2 -8 -10 -17z m311 -7
c23 -28 -64 -98 -104 -82 -24 9 -17 32 20 65 38 33 66 39 84 17z m501 -41 c0
-29 -43 -55 -90 -55 -52 0 -32 52 35 88 27 14 55 -3 55 -33z m-1872 -2 c2 -8
-6 -13 -22 -13 -26 0 -40 12 -29 24 11 11 46 2 51 -11z m2034 -29 c-13 -28
-35 -28 -41 1 -4 23 28 50 43 35 6 -6 5 -19 -2 -36z m-2759 -71 c-7 -2 -19 -2
-25 0 -7 3 -2 5 12 5 14 0 19 -2 13 -5z m2548 -42 c-15 -27 -39 -44 -56 -37
-20 7 -8 34 24 50 31 17 45 11 32 -13z m-1862 15 c-2 -2 -22 -9 -43 -15 -22
-5 -35 -6 -30 -2 9 9 37 18 63 20 8 0 12 -1 10 -3z m1698 -22 c6 -16 -32 -64
-52 -64 -40 0 -34 53 8 70 31 13 37 12 44 -6z m-1890 0 c-3 -3 -12 -4 -19 -1
-8 3 -5 6 6 6 11 1 17 -2 13 -5z m469 -19 c10 -25 -16 -45 -58 -45 -45 0 -63
24 -33 46 26 19 84 18 91 -1z m-406 -5 c-8 -5 -19 -10 -25 -10 -5 0 -3 5 5 10
8 5 20 10 25 10 6 0 3 -5 -5 -10z m108 -55 c11 -10 -13 -25 -39 -25 -28 0 -39
17 -22 34 7 6 53 0 61 -9z m197 -36 c-9 -14 -45 -11 -45 4 0 8 3 17 6 20 10 9
46 -12 39 -24z m1175 -149 c-34 -33 -50 -58 -59 -94 -14 -56 -1 -110 30 -127
11 -5 17 -14 14 -19 -3 -4 3 -7 12 -5 10 2 37 6 61 8 l42 5 -60 -66 c-34 -36
-80 -96 -103 -133 -25 -40 -54 -73 -72 -82 -16 -8 -51 -30 -76 -50 l-47 -35
14 61 c53 229 134 433 234 584 l34 52 11 -27 c11 -25 8 -30 -35 -72z m-760 55
c0 -8 -9 -24 -21 -36 -16 -16 -23 -18 -35 -8 -19 16 -18 36 4 48 25 15 52 13
52 -4z m-294 -6 c9 -15 -14 -29 -48 -29 -34 0 -37 17 -5 30 30 12 45 12 53 -1z
m2022 -36 c-4 -22 -48 -31 -48 -10 0 19 10 27 32 27 13 0 18 -6 16 -17z
m-1930 -5 c-7 -19 -38 -22 -38 -4 0 10 9 16 21 16 12 0 19 -5 17 -12z m1793 2
c17 0 9 -26 -15 -49 -13 -12 -36 -23 -52 -24 -23 -2 -30 2 -32 21 -6 38 34 67
76 56 8 -2 18 -4 23 -4z m-3733 -135 c54 -16 102 -61 102 -96 0 -24 11 -24 32
0 15 17 14 20 -6 42 l-21 23 25 -16 c65 -40 99 -159 63 -221 -23 -38 -59 -59
-93 -53 -14 2 -52 21 -85 41 -33 20 -123 67 -200 105 -107 54 -156 73 -210 81
-96 14 -116 34 -42 42 40 4 63 17 30 17 -35 0 -119 -29 -136 -47 -14 -17 -12
-18 43 -19 95 -3 269 -66 404 -147 73 -43 96 -66 118 -115 21 -47 18 -74 -15
-109 -22 -25 -47 -29 -79 -12 -16 9 -23 7 -34 -10 -8 -11 -24 -26 -35 -31 -26
-14 -62 -3 -55 17 5 12 -2 14 -37 10 -45 -5 -87 6 -87 22 0 11 7 18 53 52 37
28 24 41 -54 58 -68 14 -103 43 -95 77 5 20 1 24 -33 34 -52 14 -76 37 -60 56
6 8 18 14 25 14 26 0 14 20 -15 26 -16 4 -38 14 -49 25 -11 10 -23 15 -26 12
-3 -4 -6 0 -6 9 0 16 33 49 65 66 30 15 179 52 250 62 77 11 198 4 263 -15z
m1861 -29 c9 -11 8 -15 -5 -20 -32 -12 -54 -7 -54 14 0 24 41 28 59 6z m1952
-1 c0 -13 -41 -19 -41 -7 0 11 20 22 33 18 5 -1 8 -6 8 -11z m-321 -3 c0 -5
-9 -17 -21 -28 -17 -15 -22 -16 -29 -4 -5 9 -5 19 2 27 12 14 48 18 48 5z
m-1398 -39 c27 -24 22 -43 -11 -43 -16 0 -36 3 -45 6 -16 6 -22 35 -9 47 12
12 46 7 65 -10z m-1334 -46 c4 -19 -39 -40 -63 -31 -24 10 -17 31 13 42 34 13
46 10 50 -11z m1755 -99 c41 -174 62 -318 47 -318 -5 0 -10 7 -10 16 0 57 -93
265 -156 347 l-36 47 34 1 c18 1 44 5 58 9 14 4 28 8 31 9 3 1 18 -50 32 -111z
m543 59 c0 -19 10 -48 22 -65 21 -29 21 -31 4 -36 -10 -4 -45 -23 -78 -42 -57
-36 -124 -59 -124 -45 0 19 155 221 169 221 3 0 6 -15 7 -33z m-3595 -7 c5 0
9 -4 9 -10 0 -18 -29 -11 -40 9 -15 28 -12 35 6 17 8 -9 20 -16 25 -16z m2953
-151 c55 -107 94 -215 82 -227 -4 -3 -19 2 -34 11 -59 39 -150 77 -217 92
l-70 16 3 38 c3 25 -1 41 -12 50 -23 19 -20 28 13 34 49 10 115 68 126 111 l9
38 22 -27 c12 -16 47 -77 78 -136z m-1834 92 c0 -15 -29 -33 -41 -25 -9 5 -7
11 6 21 22 15 35 17 35 4z m2974 -6 c210 -44 363 -198 372 -372 3 -64 3 -66
-9 -33 -9 27 -17 34 -33 32 -13 -2 -24 4 -28 13 -9 23 3 38 25 32 23 -6 23 -6
3 37 -15 31 -19 33 -32 19 -10 -10 -26 -13 -49 -10 -43 7 -50 -8 -17 -36 18
-16 25 -29 21 -41 -9 -22 -51 -37 -87 -30 -35 7 -35 7 -14 -45 16 -40 7 -81
-17 -81 -16 0 -69 61 -94 110 -57 110 -163 201 -281 240 -73 25 -127 58 -132
82 -2 9 6 26 17 37 12 12 18 21 14 21 -17 0 -110 -28 -147 -44 -22 -9 -41 -15
-43 -12 -7 6 158 69 216 82 78 17 233 16 315 -1z m-3054 -24 c0 -20 -39 -51
-65 -51 -21 0 -19 20 7 47 26 28 58 31 58 4z m345 -8 c8 -22 -28 -53 -61 -53
-32 0 -31 23 2 49 33 26 50 27 59 4z m-1285 -13 c0 -5 -9 -10 -20 -10 -11 0
-20 5 -20 10 0 6 9 10 20 10 11 0 20 -4 20 -10z m1400 1 c0 -17 -12 -41 -21
-41 -10 0 -12 33 -2 43 9 10 23 9 23 -2z m740 0 c0 -13 -34 -23 -54 -15 -28
11 -18 24 19 24 19 0 35 -4 35 -9z m-73 -21 c5 -17 14 -20 62 -20 31 0 62 -4
70 -9 24 -16 4 -39 -41 -46 -109 -19 -283 -93 -332 -141 l-23 -24 4 24 c6 27
-7 37 -57 47 l-35 6 32 8 c37 8 66 35 39 35 -9 0 -16 6 -16 14 0 20 37 45 80
52 19 4 42 15 50 25 18 23 84 47 128 48 26 1 35 -4 39 -19z m213 -25 c-15 -18
-51 -16 -58 3 -2 8 8 12 33 12 33 0 36 -2 25 -15z m-1030 -50 c0 -16 -34 -38
-44 -28 -7 7 23 43 36 43 4 0 8 -7 8 -15z m-128 -37 c-18 -18 -24 -20 -34 -9
-11 10 -8 16 11 32 34 28 54 8 23 -23z m-959 15 c12 -11 -14 -33 -39 -33 -25
0 -39 14 -29 30 7 11 58 14 68 3z m3412 -20 c28 -8 91 -35 140 -61 74 -37 106
-62 182 -138 108 -111 136 -165 108 -208 -18 -27 -45 -35 -45 -13 0 7 -17 45
-38 85 l-39 73 -16 -25 c-22 -33 -39 -26 -78 30 -38 56 -52 57 -44 1 11 -73
-49 -124 -97 -80 -13 12 -18 31 -18 71 0 82 -47 126 -90 87 -24 -22 -44 -11
-86 47 -20 27 -42 48 -49 46 -8 -2 -28 -25 -47 -53 -36 -54 -73 -71 -84 -38
-3 10 -11 29 -17 42 -9 19 -8 25 4 35 9 6 19 20 23 32 3 11 20 33 36 49 47 45
144 52 255 18z m-3617 -25 c-3 -7 -13 -13 -23 -13 -10 0 -20 6 -22 13 -3 7 5
12 22 12 17 0 25 -5 23 -12z m2323 2 c33 -18 23 -47 -28 -77 -27 -15 -81 -55
-122 -90 -68 -58 -111 -78 -111 -53 0 15 -46 12 -59 -4 -6 -7 -9 -20 -6 -27 7
-20 -31 -77 -60 -91 -20 -9 -28 -8 -43 6 -18 15 -21 15 -56 -9 -45 -30 -64
-32 -74 -4 -9 22 -15 16 -99 -84 -23 -27 -53 -36 -53 -16 0 25 34 70 140 186
70 75 262 199 363 232 35 12 89 25 122 30 33 5 61 9 63 10 2 0 12 -4 23 -9z
m-1747 -16 c3 -8 2 -12 -4 -9 -6 3 -10 10 -10 16 0 14 7 11 14 -7z m-444 -4
c0 -5 -7 -10 -15 -10 -8 0 -15 5 -15 10 0 6 7 10 15 10 8 0 15 -4 15 -10z
m733 -30 c27 0 57 5 68 10 12 7 0 -18 -35 -72 -70 -108 -100 -169 -135 -273
-28 -83 -40 -97 -42 -46 0 14 -8 55 -17 90 l-17 65 40 37 c38 36 40 39 43 112
3 44 -1 83 -7 96 l-12 21 33 -20 c21 -13 51 -20 81 -20z m2364 22 c-27 -30
-48 -92 -47 -136 1 -22 1 -47 1 -54 -1 -21 -81 46 -81 68 0 10 29 45 65 79 62
57 98 82 62 43z m-477 -25 c72 -26 79 -33 36 -40 -26 -4 -48 1 -87 22 -60 31
-78 56 -32 45 15 -4 53 -16 83 -27z m-1809 -71 c-75 -78 -49 -180 41 -162 29
6 29 5 -21 -49 -27 -31 -60 -73 -72 -95 -12 -21 -35 -44 -50 -50 -15 -7 -35
-20 -45 -31 -31 -34 -33 -20 -9 69 40 151 82 248 149 349 17 26 22 29 29 17 7
-12 0 -25 -22 -48z m-534 17 c-14 -14 -19 -15 -29 -4 -11 10 -9 15 6 27 27 20
47 0 23 -23z m-192 6 c-8 -12 -45 -12 -45 0 0 10 30 20 43 14 4 -3 5 -9 2 -14z
m2382 15 c48 -13 36 -35 -70 -138 -120 -116 -149 -153 -205 -256 -50 -91 -86
-213 -101 -340 -16 -127 -19 -140 -36 -140 -23 0 -35 34 -35 99 0 58 -1 61
-25 61 -30 0 -33 25 -10 90 8 23 15 44 15 46 0 5 -64 -18 -78 -29 -22 -17 -4
41 29 96 16 26 29 55 29 64 0 14 -2 14 -20 -2 -12 -11 -29 -16 -44 -13 -21 4
-26 0 -31 -23 -4 -16 -11 -29 -16 -29 -13 0 -11 12 16 92 73 217 185 326 405
392 122 36 142 39 177 30z m-992 -24 c3 -6 -1 -13 -10 -16 -19 -8 -30 0 -20
15 8 14 22 14 30 1z m-1325 -10 c0 -5 -7 -10 -16 -10 -8 0 -12 5 -9 10 3 6 10
10 16 10 5 0 9 -4 9 -10z m1228 1 c11 -7 9 -13 -9 -30 -27 -25 -47 -27 -56 -5
-4 11 1 22 12 30 22 16 34 17 53 5z m1443 -37 c54 -16 139 -86 139 -114 0 -10
-3 -10 -14 -1 -11 9 -20 10 -36 1 -32 -17 -20 -42 32 -70 55 -29 72 -61 62
-116 -11 -62 -21 -74 -60 -74 -50 0 -68 -12 -103 -71 -18 -28 -37 -49 -44 -46
-7 2 -22 22 -35 45 -13 23 -29 42 -36 42 -7 0 -35 -48 -62 -107 -56 -121 -129
-213 -170 -213 -33 0 -39 22 -24 85 19 77 11 84 -44 36 -62 -54 -76 -53 -76 4
0 25 -4 45 -9 45 -10 0 -76 -85 -114 -147 -32 -51 -43 -58 -64 -42 -26 22 -10
163 28 255 68 164 255 401 357 453 52 26 135 49 183 50 19 1 60 -6 90 -15z
m519 -3 c25 -47 0 -98 -43 -87 -22 5 -27 12 -27 38 0 55 48 89 70 49z m128
-48 c12 -24 4 -43 -18 -43 -20 0 -32 23 -24 45 8 20 31 19 42 -2z m-3368 -22
c0 -6 -5 -13 -10 -16 -15 -9 -43 3 -35 15 8 13 45 13 45 1z m1340 -1 c0 -5 -7
-10 -15 -10 -8 0 -15 5 -15 10 0 6 7 10 15 10 8 0 15 -4 15 -10z m2730 -36 c0
-22 -17 -25 -41 -5 -20 16 -22 21 -10 35 13 15 15 15 32 0 11 -10 19 -23 19
-30z m-2962 24 c-6 -18 -28 -21 -28 -4 0 9 7 16 16 16 9 0 14 -5 12 -12z
m-950 -20 c18 -18 14 -28 -12 -28 -25 0 -51 22 -39 33 10 11 38 8 51 -5z
m1669 -13 c-7 -16 -37 -21 -37 -5 0 10 32 31 39 25 2 -2 1 -11 -2 -20z m1609
-51 c7 -37 -15 -64 -52 -64 -31 0 -41 37 -20 78 27 53 60 46 72 -14z m-2987
-49 c23 -92 39 -231 20 -180 -40 111 -65 166 -94 207 l-34 46 37 10 c20 5 40
6 44 3 3 -3 16 -42 27 -86z m3192 53 c11 -27 10 -32 -6 -44 -22 -17 -40 -5
-49 32 -8 29 9 55 29 48 7 -3 19 -19 26 -36z m-2807 -48 c5 -11 -11 -24 -59
-48 -36 -19 -70 -32 -75 -30 -5 2 18 39 52 83 l63 80 6 -35 c3 -19 9 -42 13
-50z m2093 4 c32 -58 45 -134 23 -134 -5 0 -10 13 -10 29 0 38 -24 105 -51
143 -15 20 -18 29 -8 26 8 -2 28 -31 46 -64z m121 40 c5 3 23 -9 41 -27 l31
-33 -34 -16 -34 -17 -18 47 c-11 26 -21 51 -23 57 -2 5 3 4 12 -3 9 -8 20 -11
25 -8z m-2663 -119 c43 -92 58 -135 47 -135 -4 0 -38 16 -76 35 -37 19 -79 35
-91 35 -38 0 -53 10 -48 31 3 10 -1 27 -8 36 -11 12 -11 17 -2 20 31 11 79 52
92 78 13 27 14 28 29 9 8 -10 34 -59 57 -109z m735 85 c104 -17 164 -45 220
-107 57 -62 103 -183 70 -183 -5 0 -10 7 -10 15 0 8 -3 14 -7 14 -21 -3 -33 2
-33 16 0 8 7 15 15 15 8 0 15 3 15 8 -1 20 -18 28 -52 24 -39 -4 -49 -16 -23
-26 39 -14 2 -57 -44 -50 -18 3 -22 1 -17 -12 15 -38 17 -62 6 -69 -15 -9 -55
28 -75 72 -37 77 -104 131 -217 173 -59 22 -76 43 -56 68 11 13 9 14 -17 8
-16 -4 -39 -9 -50 -11 -11 -3 0 4 25 16 38 17 109 33 170 38 8 0 44 -4 80 -9z
m2888 -2 c15 -15 16 -55 2 -63 -16 -10 -40 14 -40 40 0 34 16 45 38 23z m-259
-20 c11 -30 3 -48 -20 -48 -14 0 -19 7 -19 28 0 46 25 58 39 20z m-3864 -17
c-6 -5 -19 -11 -30 -14 -15 -4 -14 -5 7 -6 36 -1 80 -19 74 -29 -3 -5 -31 -14
-63 -21 -97 -22 -175 -65 -262 -147 -73 -69 -107 -83 -81 -34 6 11 8 24 5 29
-3 5 6 18 20 29 16 13 22 23 15 27 -17 10 17 43 52 50 22 5 27 10 19 18 -13
13 14 47 37 47 8 0 29 9 48 20 44 28 184 55 159 31z m1645 -6 c0 -16 -27 -32
-37 -22 -3 4 -3 13 0 22 8 20 37 20 37 0z m-1549 -28 c-12 -12 -45 -1 -37 12
3 5 15 7 27 4 13 -4 17 -9 10 -16z m3883 -13 c7 -19 -1 -34 -19 -34 -15 0 -28
27 -19 41 9 14 31 10 38 -7z m-2915 -79 c80 -40 128 -79 183 -148 40 -51 48
-86 24 -106 -12 -10 -19 -3 -41 44 -25 55 -27 57 -44 41 -18 -16 -20 -15 -46
18 -34 45 -45 46 -38 3 6 -38 -13 -60 -49 -55 -20 3 -23 10 -26 49 -4 60 -29
87 -62 67 -20 -12 -25 -10 -54 25 -38 43 -51 46 -67 15 -30 -59 -62 -69 -73
-23 -11 43 36 102 93 117 35 10 136 -14 200 -47z m-961 13 c18 -18 15 -24 -25
-49 -21 -13 -62 -43 -91 -67 -43 -37 -55 -42 -67 -32 -21 18 -45 5 -45 -24 0
-31 -47 -71 -66 -55 -9 7 -21 6 -43 -5 -38 -20 -51 -20 -51 1 0 14 -2 14 -21
-3 -12 -10 -27 -31 -35 -46 -9 -17 -23 -28 -35 -28 -18 0 -19 2 -4 30 22 43
111 130 183 179 83 56 155 88 222 100 30 5 57 9 61 10 3 0 10 -4 17 -11z m600
-45 c-12 -25 -17 -50 -14 -70 3 -18 3 -33 0 -33 -16 0 -54 35 -54 50 0 14 70
90 84 90 2 0 -5 -17 -16 -37z m2376 10 c-4 -16 -13 -39 -21 -52 -14 -21 -16
-22 -31 -8 -13 13 -13 21 -4 42 6 14 18 25 27 25 8 0 15 5 15 10 0 6 5 10 10
10 6 0 8 -11 4 -27z m-2663 -7 c33 -14 33 -14 8 -15 -28 -1 -99 25 -99 35 0 9
52 -2 91 -20z m-127 -12 c9 -3 16 -11 16 -18 0 -6 -40 -52 -89 -102 -60 -62
-98 -111 -120 -155 -36 -74 -71 -203 -71 -263 0 -23 -4 -47 -9 -55 -16 -25
-31 -1 -31 50 0 37 -4 49 -15 49 -23 0 -29 26 -15 61 16 37 11 42 -24 24 -26
-14 -27 -14 -20 8 3 12 15 37 26 55 23 38 19 49 -11 32 -12 -6 -21 -7 -21 -3
-1 4 -7 -3 -15 -17 -20 -35 -19 -5 2 56 38 111 122 204 215 237 124 44 155 51
182 41z m232 -45 c44 -11 104 -59 104 -82 0 -8 -3 -8 -11 0 -18 18 -45 -13
-29 -32 7 -8 18 -15 26 -15 23 0 44 -31 44 -65 0 -49 -9 -65 -37 -65 -35 0
-61 -16 -78 -50 -20 -38 -30 -38 -50 1 -21 39 -34 29 -75 -59 -35 -75 -84
-132 -113 -132 -18 0 -19 5 -12 57 l7 58 -23 -20 c-13 -11 -30 -26 -37 -33
-19 -17 -35 -4 -29 24 8 46 -12 34 -60 -36 -26 -38 -53 -70 -60 -70 -18 0 -25
34 -17 77 5 21 7 42 6 46 -5 19 72 161 127 234 75 100 149 153 231 166 14 2
29 5 33 6 5 0 28 -4 53 -10z m364 -4 c16 -19 -2 -65 -25 -65 -22 0 -30 27 -17
56 13 28 24 30 42 9z m1042 -109 c6 4 9 1 6 -7 -3 -8 -11 -14 -19 -14 -17 0
-24 63 -12 115 7 31 8 28 11 -33 2 -45 6 -65 14 -61z m1056 112 c7 -7 12 -22
12 -35 0 -45 -69 -85 -84 -48 -7 20 10 67 31 83 21 15 26 15 41 0z m-3356 -20
c-6 -6 -15 -8 -19 -4 -4 4 -1 11 7 16 19 12 27 3 12 -12z m1348 -29 c0 -24
-23 -21 -28 4 -2 10 3 17 12 17 10 0 16 -9 16 -21z m2354 -20 c29 -34 33 -57
12 -65 -32 -12 -86 47 -73 80 10 25 33 19 61 -15z m-1874 -10 c0 -12 -27 -11
-35 1 -11 17 5 32 21 19 8 -6 14 -15 14 -20z m-2210 -79 l-11 -25 6 25 c2 14
6 41 7 60 l1 35 4 -35 c2 -20 -1 -47 -7 -60z m670 75 c-7 -9 -15 -13 -17 -11
-7 7 7 26 19 26 6 0 6 -6 -2 -15z m2889 -12 c17 -31 -24 -103 -60 -103 -46 0
-37 69 13 104 28 20 35 20 47 -1z m957 9 c21 -13 27 -52 10 -58 -22 -9 -46 14
-46 42 0 24 15 30 36 16z m-2746 -21 c16 -32 -13 -72 -41 -55 -13 8 -11 48 3
62 17 17 26 15 38 -7z m140 0 c14 -27 13 -38 -5 -45 -10 -4 -19 2 -24 17 -15
41 9 65 29 28z m-1530 -5 c0 -7 -6 -19 -14 -25 -19 -16 -32 5 -16 24 16 19 30
19 30 1z m1047 -32 c22 -38 34 -117 13 -84 -5 8 -10 24 -10 36 0 12 -11 38
-25 59 -14 20 -20 35 -13 33 7 -3 23 -22 35 -44z m111 5 l23 -18 -21 -11 c-25
-13 -22 -15 -44 27 -15 31 -15 32 1 26 10 -4 28 -14 41 -24z m636 -16 c8 -19
-8 -38 -23 -29 -16 10 -13 46 3 46 8 0 17 -8 20 -17z m-184 -13 c0 -11 -7 -20
-15 -20 -15 0 -21 21 -8 33 12 13 23 7 23 -13z m-1525 -10 c-3 -5 -10 -10 -16
-10 -5 0 -9 5 -9 10 0 6 7 10 16 10 8 0 12 -4 9 -10z m3126 -11 c9 -17 8 -25
-4 -37 -19 -18 -47 -9 -47 16 0 18 18 42 32 42 4 0 12 -10 19 -21z m-3446 -3
c6 -2 -11 -5 -37 -7 -30 -3 -48 0 -48 6 0 10 53 10 85 1z m1920 -26 c-5 -8
-11 -8 -17 -2 -6 6 -7 16 -3 22 5 8 11 8 17 2 6 -6 7 -16 3 -22z m-1768 -27
c-3 -10 -5 -4 -5 12 0 17 2 24 5 18 2 -7 2 -21 0 -30z m2803 3 c0 -34 -38 -78
-64 -74 -30 4 -31 31 -1 67 33 38 65 42 65 7z m998 -9 c2 -15 -1 -27 -6 -27
-17 0 -34 29 -28 46 9 23 31 11 34 -19z m-4091 1 c-3 -8 -6 -5 -6 6 -1 11 2
17 5 13 3 -3 4 -12 1 -19z m453 12 c0 -5 -8 -10 -17 -10 -15 0 -16 2 -3 10 19
12 20 12 20 0z m2957 -6 c7 -19 -30 -59 -46 -50 -10 7 -5 32 12 54 13 17 26
15 34 -4z m-3013 -2 c3 -5 -1 -9 -9 -9 -8 0 -12 4 -9 9 3 4 7 8 9 8 2 0 6 -4
9 -8z m2354 -19 c-4 -33 -24 -41 -33 -14 -8 25 1 41 21 41 11 0 14 -8 12 -27z
m-1307 -16 c-13 -33 -29 -43 -38 -21 -4 11 2 23 18 35 29 22 32 19 20 -14z
m2877 -30 c3 -14 -1 -18 -20 -15 -12 2 -24 11 -26 21 -3 14 1 18 20 15 12 -2
24 -11 26 -21z m-1108 -18 c0 -19 -35 -49 -57 -49 -19 0 -16 24 7 53 23 29 50
26 50 -4z m-1826 12 c4 -5 2 -21 -4 -35 -13 -34 -50 -36 -50 -3 0 36 39 63 54
38z m-741 -36 c-4 -23 -2 -35 6 -35 6 0 11 -4 11 -10 0 -5 -7 -10 -15 -10 -11
0 -15 11 -15 38 0 33 6 52 16 52 2 0 0 -16 -3 -35z m971 -10 c20 -30 20 -45 3
-45 -21 0 -50 37 -44 55 9 22 22 19 41 -10z m3216 -8 c0 -5 -4 -5 -10 -2 -5 3
-10 14 -10 23 0 15 2 15 10 2 5 -8 10 -19 10 -23z m-1910 -7 c0 -24 -20 -37
-30 -19 -10 16 7 52 21 44 5 -4 9 -15 9 -25z m-1664 -5 c8 -19 -22 -65 -42
-65 -26 0 -28 30 -4 56 27 28 38 30 46 9z m662 -13 c2 -12 -1 -22 -6 -22 -15
0 -34 28 -27 40 10 17 30 6 33 -18z m-1483 -2 c-11 -5 -27 -9 -35 -9 -9 0 -8
4 5 9 11 5 27 9 35 9 9 0 8 -4 -5 -9z m2645 -6 c0 -16 -23 -44 -35 -44 -18 0
-20 21 -3 38 12 12 38 17 38 6z m-2703 -10 c-3 -3 -12 -4 -19 -1 -8 3 -5 6 6
6 11 1 17 -2 13 -5z m-147 -24 c0 -5 -7 -7 -15 -4 -8 4 -15 8 -15 10 0 2 7 4
15 4 8 0 15 -4 15 -10z m37 4 c-3 -3 -12 -4 -19 -1 -8 3 -5 6 6 6 11 1 17 -2
13 -5z m413 -4 c0 -5 -5 -10 -11 -10 -5 0 -7 5 -4 10 3 6 8 10 11 10 2 0 4 -4
4 -10z m600 -15 c0 -19 -20 -29 -32 -17 -8 8 -7 16 2 26 14 17 30 12 30 -9z
m-340 -29 c0 -8 -9 -24 -19 -37 -16 -19 -22 -21 -32 -12 -10 10 -10 18 -1 38
12 27 52 35 52 11z m210 -21 c-7 -8 -16 -15 -21 -15 -13 0 -11 24 3 38 18 18
35 -3 18 -23z m475 25 c11 -17 -5 -32 -21 -19 -7 6 -11 15 -8 20 7 12 21 11
29 -1z m1875 -15 c13 -14 21 -27 18 -30 -2 -3 -17 9 -33 25 -16 17 -24 30 -19
30 6 0 21 -11 34 -25z m-2795 -3 c0 -18 -20 -15 -23 4 -3 10 1 15 10 12 7 -3
13 -10 13 -16z m1075 -33 c0 -5 -7 -9 -15 -9 -15 0 -20 12 -9 23 8 8 24 -1 24
-14z m-760 -8 c0 -18 -35 -39 -47 -28 -5 5 32 47 42 47 3 0 5 -9 5 -19z m1845
-11 c13 -6 15 -9 5 -9 -8 0 -22 4 -30 9 -18 12 -2 12 25 0z m420 -5 c-99 -22
-121 -25 -105 -18 31 14 106 31 135 31 18 0 6 -5 -30 -13z m1962 -21 c-3 -3
-12 -4 -19 -1 -8 3 -5 6 6 6 11 1 17 -2 13 -5z"/>
<path d="M10492 2561 l-34 -6 26 -24 c25 -24 26 -24 26 -4 0 43 31 35 87 -23
29 -31 56 -54 59 -51 3 3 1 22 -6 42 -7 20 -10 45 -7 56 5 17 0 19 -56 18 -34
-1 -77 -4 -95 -8z"/>
<path d="M10737 2558 c18 -6 56 -31 85 -56 46 -39 53 -42 57 -26 1 10 9 26 17
35 12 14 10 17 -23 27 -27 8 -33 8 -25 0 7 -7 12 -16 12 -20 0 -12 -40 -10
-41 2 -5 37 -3 36 -64 43 -45 5 -47 5 -18 -5z"/>
<path d="M11126 2357 c-8 -54 -7 -60 13 -47 11 6 12 18 5 52 l-10 43 -8 -48z"/>
<path d="M8372 1621 c-11 -6 -10 -10 4 -15 11 -4 20 -2 22 3 7 21 31 11 58
-24 30 -40 49 -46 38 -12 -4 12 -8 30 -8 40 0 14 -9 17 -51 17 -27 0 -56 -4
-63 -9z"/>
<path d="M8560 1619 c14 -6 37 -22 53 -36 26 -26 27 -26 41 -7 8 10 12 22 10
26 -8 12 -34 9 -34 -3 0 -6 -5 -9 -11 -7 -6 2 -10 8 -9 13 2 11 -27 24 -55 24
-17 0 -16 -2 5 -10z"/>
<path d="M8818 1485 c-6 -30 -3 -43 8 -33 3 4 4 19 2 35 l-3 28 -7 -30z"/>
<path d="M12216 1341 c-11 -12 -17 -24 -14 -27 3 -2 41 -4 84 -2 l79 3 -40 18
c-65 30 -88 31 -109 8z"/>
<path d="M12410 1245 c-7 -8 -22 -15 -34 -15 -11 0 -38 -5 -58 -11 -41 -11
-51 -36 -23 -59 12 -10 15 -9 15 8 0 28 24 45 52 36 13 -4 43 -6 66 -5 24 1
50 -3 58 -10 24 -20 15 -1 -17 36 -35 39 -41 41 -59 20z"/>
<path d="M10739 893 l-24 -28 28 24 c15 14 27 26 27 28 0 8 -8 1 -31 -24z"/>
<path d="M10674 818 l-19 -23 23 19 c21 18 27 26 19 26 -2 0 -12 -10 -23 -22z"/>
<path d="M9564 789 c-10 -17 11 -25 58 -20 l43 4 -30 13 c-37 16 -62 17 -71 3z"/>
<path d="M9696 725 c-11 -8 -29 -15 -40 -15 -33 0 -50 -16 -41 -36 6 -18 8
-17 16 3 7 20 13 22 56 17 26 -3 54 -8 61 -10 8 -2 5 8 -8 26 -12 17 -22 30
-23 30 -1 0 -11 -7 -21 -15z"/>
<path d="M8549 473 l-24 -28 28 24 c25 23 32 31 24 31 -2 0 -14 -12 -28 -27z"/>
<path d="M879 3143 c22 -4 20 -7 -19 -29 -30 -17 -63 -26 -107 -29 -42 -2 -71
-9 -83 -20 -28 -26 -36 2 -9 32 l24 25 -30 -8 c-62 -14 -73 -47 -27 -81 73
-54 134 -77 226 -85 50 -5 112 -11 137 -14 58 -7 75 10 73 77 -3 92 -57 140
-156 138 -29 -1 -42 -4 -29 -6z"/>
<path d="M6954 3055 c26 -19 42 -19 26 0 -7 8 -20 15 -29 15 -13 -1 -13 -3 3
-15z"/>
<path d="M6770 2962 c0 -5 14 -15 31 -23 18 -7 53 -30 80 -51 l48 -38 19 28
c10 15 22 32 25 39 5 8 -15 16 -60 26 -115 26 -143 30 -143 19z"/>
<path d="M6765 2880 c-3 -5 -10 -49 -16 -97 -12 -106 -23 -149 -47 -186 l-19
-28 -52 105 c-36 75 -63 115 -93 140 -23 20 -43 35 -44 33 -2 -2 -6 -28 -9
-58 -10 -91 -15 -119 -25 -119 -6 0 -10 4 -10 10 0 31 -129 135 -145 118 -4
-3 2 -19 12 -34 l18 -28 -25 8 c-47 13 -221 46 -245 46 -14 0 -46 13 -72 29
-26 17 -50 28 -52 25 -3 -2 38 -44 90 -93 51 -50 91 -92 89 -95 -3 -2 -49 11
-103 29 -122 43 -247 67 -329 63 l-62 -3 49 -32 c56 -36 52 -40 -21 -18 -72
21 -284 57 -305 52 -9 -3 -53 4 -96 14 -43 10 -91 19 -106 19 -28 0 -27 -1 25
-50 46 -44 49 -49 21 -35 -66 31 -166 48 -293 49 -69 0 -143 -3 -165 -8 l-40
-8 48 -25 c27 -13 47 -26 45 -27 -1 -2 -50 5 -108 15 -104 18 -300 24 -350 10
l-24 -7 24 -18 25 -18 -30 6 c-144 25 -316 36 -420 25 -100 -10 -202 -36 -189
-48 5 -4 45 -16 89 -25 70 -16 191 -64 182 -72 -2 -2 -32 2 -68 8 -136 25
-679 7 -679 -22 0 -4 26 -18 58 -30 86 -34 82 -38 -20 -24 -136 20 -244 28
-265 20 -17 -7 -17 -8 2 -23 18 -14 12 -15 -75 -10 -146 9 -150 -1 -26 -58 59
-26 110 -53 113 -58 4 -6 0 -8 -9 -5 -32 13 -427 31 -512 24 -92 -8 -98 -15
-31 -41 l40 -15 -40 6 c-94 14 -194 20 -244 15 l-54 -6 37 -26 37 -26 -153 -6
c-171 -7 -328 -25 -328 -38 0 -5 10 -9 23 -9 12 0 40 -9 62 -19 l40 -19 -120
-2 c-124 -2 -221 -18 -218 -37 1 -6 -38 -13 -100 -17 -136 -8 -329 -49 -311
-65 5 -5 40 -19 79 -32 l69 -24 -179 -6 c-99 -4 -198 -12 -220 -18 -93 -28
-135 -43 -135 -50 0 -4 19 -16 42 -27 l42 -21 -110 -12 c-147 -18 -396 -69
-582 -121 l-152 -42 0 -495 0 -496 43 7 c40 7 97 25 347 116 83 30 136 43 190
46 86 6 108 -3 91 -35 -11 -19 -9 -21 19 -21 141 0 453 124 593 236 l59 47
-49 30 c-26 16 -52 33 -57 37 -4 5 24 30 63 55 39 26 68 51 66 56 -3 4 0 11 6
15 8 4 9 3 5 -4 -11 -18 0 -15 54 16 28 16 47 32 43 36 -4 4 1 4 11 0 15 -6
17 -4 11 6 -5 8 -4 11 2 7 12 -7 255 97 247 106 -4 3 -20 -1 -37 -9 -23 -13
-29 -13 -25 -3 4 11 -12 14 -81 12 -47 -1 -97 -4 -111 -7 -71 -14 -95 -16 -80
-5 11 8 8 9 -15 4 -28 -6 -29 -5 -10 8 14 11 25 12 37 6 14 -7 18 -6 18 6 0 8
6 15 14 15 7 0 19 7 26 15 7 9 19 14 27 11 7 -3 13 -1 13 5 0 6 8 8 17 5 10
-4 14 -4 10 0 -8 9 39 34 62 33 12 0 12 -2 -3 -8 -19 -7 -19 -8 2 -13 12 -4
20 -2 16 3 -7 13 20 11 33 -2 7 -7 12 -6 17 6 3 10 2 14 -5 10 -5 -4 -20 0
-32 8 -21 13 -29 12 -97 -16 -41 -17 -76 -35 -78 -39 -2 -4 -13 -8 -23 -8 -12
0 -17 -4 -14 -11 4 -6 1 -10 -6 -8 -26 3 -38 -1 -55 -18 -10 -10 -22 -18 -28
-19 -23 -1 -56 -16 -56 -25 0 -12 17 -11 43 3 20 10 21 10 8 -6 -9 -11 -24
-16 -38 -13 -13 2 -26 0 -29 -5 -3 -5 -15 -6 -26 -2 -15 4 -18 3 -13 -6 5 -8
4 -11 -3 -7 -14 9 -43 -3 -36 -14 3 -5 -1 -6 -9 -3 -8 3 -20 -2 -27 -11 -7 -8
-20 -15 -28 -15 -29 0 -1 16 193 113 286 143 545 248 830 336 233 72 392 107
850 185 143 25 377 68 520 96 431 85 485 91 1015 100 529 9 519 8 977 109 306
68 341 74 588 101 410 46 573 89 649 169 29 30 30 32 17 80 -19 74 -9 95 70
144 38 23 69 45 69 48 0 16 -127 62 -135 49z m-5202 -1450 c4 0 5 4 2 10 -3 6
1 7 10 3 13 -5 14 -7 3 -14 -11 -7 -10 -9 1 -9 8 0 12 -3 9 -6 -4 -3 -16 0
-28 6 -18 10 -25 9 -32 -1 -8 -11 -9 -10 -5 2 3 9 0 22 -6 29 -7 7 -1 6 13 -3
13 -10 28 -17 33 -17z m78 5 c-18 -8 -36 -15 -40 -15 -13 1 45 29 59 29 8 0 0
-6 -19 -14z m-218 -82 c-9 -7 -22 -13 -27 -12 -6 0 -5 3 3 6 10 4 11 7 1 13
-8 5 -3 7 14 7 24 -2 25 -3 9 -14z m-328 -12 c-3 -6 3 -14 12 -20 14 -8 15
-12 6 -22 -10 -10 -16 -9 -31 4 -17 16 -21 16 -63 -4 -24 -12 -47 -27 -51 -33
-4 -6 -8 -8 -8 -3 0 4 -13 1 -30 -8 -16 -9 -30 -13 -30 -10 0 4 187 103 198
104 2 1 1 -3 -3 -8z m285 -11 c0 -5 -5 -10 -11 -10 -5 0 -7 5 -4 10 3 6 8 10
11 10 2 0 4 -4 4 -10z m-75 -68 c-3 -3 -11 0 -18 7 -9 10 -8 11 6 5 10 -3 15
-9 12 -12z m-460 -52 c-3 -5 -12 -10 -18 -10 -7 0 -6 4 3 10 19 12 23 12 15 0z
m-85 -40 c-19 -11 -39 -19 -45 -19 -5 0 6 8 25 19 19 11 40 19 45 19 6 0 -6
-8 -25 -19z m-100 -45 c-14 -8 -29 -14 -35 -14 -5 0 1 6 15 14 14 8 30 14 35
14 6 0 -1 -6 -15 -14z m-60 -25 c-8 -5 -19 -10 -25 -10 -5 0 -3 5 5 10 8 5 20
10 25 10 6 0 3 -5 -5 -10z m-65 -25 c-16 -8 -37 -14 -45 -14 -8 0 1 7 20 14
46 18 64 17 25 0z m-88 -31 c-3 -3 -12 -4 -19 -1 -8 3 -5 6 6 6 11 1 17 -2 13
-5z m-130 -40 c-3 -3 -12 -4 -19 -1 -8 3 -5 6 6 6 11 1 17 -2 13 -5z"/>
<path d="M1080 1315 c7 -8 17 -15 22 -15 6 0 5 7 -2 15 -7 8 -17 15 -22 15 -6
0 -5 -7 2 -15z"/>
<path d="M10591 2684 c0 -11 3 -14 6 -6 3 7 2 16 -1 19 -3 4 -6 -2 -5 -13z"/>
<path d="M10622 2675 c0 -16 2 -22 5 -12 2 9 2 23 0 30 -3 6 -5 -1 -5 -18z"/>
<path d="M550 2641 c8 -6 23 -11 33 -11 10 0 33 -7 53 -15 l35 -14 -18 -27
-17 -27 33 17 c32 17 33 17 26 -3 -8 -27 3 -27 32 1 l23 21 26 -24 27 -24 -5
28 c-6 32 -6 32 32 12 28 -15 30 -14 30 4 0 14 12 24 43 34 l42 15 -37 1 c-20
1 -48 -3 -62 -8 -17 -7 -26 -7 -30 2 -3 9 -5 9 -5 0 -2 -21 -18 -15 -26 10 -6
19 -8 20 -12 4 -5 -18 -6 -18 -24 -1 -18 16 -19 16 -19 -1 0 -17 -1 -17 -20 0
-13 12 -20 14 -20 6 0 -8 -10 -11 -27 -7 -73 13 -128 17 -113 7z"/>
<path d="M10466 2638 c3 -5 10 -6 15 -3 13 9 11 12 -6 12 -8 0 -12 -4 -9 -9z"/>
<path d="M10061 2554 c0 -11 3 -14 6 -6 3 7 2 16 -1 19 -3 4 -6 -2 -5 -13z"/>
<path d="M9900 2464 l-25 -15 25 7 c28 7 35 12 29 18 -2 2 -15 -2 -29 -10z"/>
<path d="M9817 2439 c7 -7 15 -10 18 -7 3 3 -2 9 -12 12 -14 6 -15 5 -6 -5z"/>
<path d="M9530 2310 c-23 -7 -23 -8 -3 -9 12 -1 25 4 28 9 3 6 5 10 3 9 -2 -1
-14 -5 -28 -9z"/>
<path d="M9955 1960 c-3 -6 1 -7 9 -4 18 7 21 14 7 14 -6 0 -13 -4 -16 -10z"/>
<path d="M9916 1952 c-3 -5 1 -9 9 -9 8 0 12 4 9 9 -3 4 -7 8 -9 8 -2 0 -6 -4
-9 -8z"/>
<path d="M3538 1743 c7 -3 16 -2 19 1 4 3 -2 6 -13 5 -11 0 -14 -3 -6 -6z"/>
<path d="M2468 1723 c7 -3 16 -2 19 1 4 3 -2 6 -13 5 -11 0 -14 -3 -6 -6z"/>
<path d="M2285 1660 c-13 -6 -15 -9 -5 -9 8 0 22 4 30 9 18 12 2 12 -25 0z"/>
<path d="M1752 1653 c-6 -2 -9 -10 -5 -16 4 -6 0 -8 -9 -5 -8 4 -21 2 -29 -3
-9 -6 -1 -8 27 -7 22 1 47 -3 54 -7 9 -5 11 -4 6 3 -4 7 -14 12 -23 12 -9 0
-13 6 -9 15 3 8 4 15 3 14 -1 0 -8 -3 -15 -6z"/>
<path d="M2235 1650 c-3 -5 1 -10 10 -10 9 0 13 5 10 10 -3 6 -8 10 -10 10 -2
0 -7 -4 -10 -10z"/>
<path d="M1810 1630 c8 -5 20 -10 25 -10 6 0 3 5 -5 10 -8 5 -19 10 -25 10 -5
0 -3 -5 5 -10z"/>
<path d="M2200 1629 c0 -5 5 -7 10 -4 6 3 10 8 10 11 0 2 -4 4 -10 4 -5 0 -10
-5 -10 -11z"/>
<path d="M1635 1600 c-3 -6 1 -7 9 -4 18 7 21 14 7 14 -6 0 -13 -4 -16 -10z"/>
<path d="M1948 1603 c6 -2 10 -9 6 -14 -3 -5 2 -9 10 -9 9 0 16 4 16 9 0 9
-25 22 -38 20 -4 0 -1 -3 6 -6z"/>
<path d="M2018 1603 c7 -3 16 -2 19 1 4 3 -2 6 -13 5 -11 0 -14 -3 -6 -6z"/>
<path d="M2093 1600 c-35 -14 -27 -20 10 -8 17 6 34 13 36 14 8 7 -24 3 -46
-6z"/>
<path d="M1660 1590 c-9 -6 -10 -10 -3 -10 6 0 15 5 18 10 8 12 4 12 -15 0z"/>
<path d="M2020 1580 c8 -5 22 -10 30 -10 13 0 13 1 0 10 -8 5 -22 10 -30 10
-13 0 -13 -1 0 -10z"/>
<path d="M1997 1569 c7 -7 15 -10 18 -7 3 3 -2 9 -12 12 -14 6 -15 5 -6 -5z"/>
<path d="M1958 1561 c10 -6 7 -10 -13 -15 -15 -4 -25 -9 -23 -12 3 -2 19 1 36
7 32 11 35 29 4 29 -13 0 -14 -2 -4 -9z"/>
<path d="M1578 1533 c7 -3 16 -2 19 1 4 3 -2 6 -13 5 -11 0 -14 -3 -6 -6z"/>
<path d="M1764 1518 c4 -14 0 -18 -22 -17 -24 0 -25 1 -7 10 15 7 10 8 -20 4
-22 -2 -75 -5 -117 -5 -48 0 -78 -4 -78 -11 0 -6 30 -10 85 -8 47 1 88 -1 92
-5 4 -3 22 -3 41 0 24 5 33 3 28 -4 -4 -6 21 -1 56 12 87 32 98 37 63 29 -16
-3 -40 -7 -52 -7 -11 -1 -19 -5 -16 -10 8 -12 -40 5 -50 18 -6 7 -7 4 -3 -6z"/>
<path d="M1485 1500 c-3 -5 1 -10 9 -10 9 0 16 5 16 10 0 6 -4 10 -9 10 -6 0
-13 -4 -16 -10z"/>
<path d="M1250 1420 c-9 -6 -10 -10 -3 -10 6 0 15 5 18 10 8 12 4 12 -15 0z"/>
<path d="M3767 623 c-4 -3 -7 -11 -7 -17 0 -6 5 -5 12 2 6 6 9 14 7 17 -3 3
-9 2 -12 -2z"/>
<path d="M3685 561 c-5 -9 41 -8 50 0 3 4 -6 7 -20 7 -14 0 -27 -4 -30 -7z"/>
<path d="M3655 520 c-3 -6 1 -7 9 -4 18 7 21 14 7 14 -6 0 -13 -4 -16 -10z"/>
<path d="M3345 510 c-3 -5 -1 -10 4 -10 6 0 11 5 11 10 0 6 -2 10 -4 10 -3 0
-8 -4 -11 -10z"/>
<path d="M3575 480 c-3 -5 1 -10 9 -10 8 0 18 5 21 10 3 6 -1 10 -9 10 -8 0
-18 -4 -21 -10z"/>
<path d="M3508 473 c7 -3 16 -2 19 1 4 3 -2 6 -13 5 -11 0 -14 -3 -6 -6z"/>
<path d="M3117 455 c3 -8 9 -12 14 -9 12 7 11 11 -5 17 -10 4 -13 1 -9 -8z"/>
<path d="M3520 455 c-14 -8 -20 -14 -15 -14 6 0 21 6 35 14 14 8 21 14 15 14
-5 0 -21 -6 -35 -14z"/>
<path d="M2565 440 c-3 -6 1 -7 9 -4 18 7 21 14 7 14 -6 0 -13 -4 -16 -10z"/>
<path d="M3073 436 c4 -9 1 -16 -5 -16 -6 0 -9 -2 -6 -5 3 -3 15 -2 26 2 l22
8 -22 14 c-18 11 -20 11 -15 -3z"/>
<path d="M7615 440 c3 -5 8 -10 11 -10 2 0 4 5 4 10 0 6 -5 10 -11 10 -5 0 -7
-4 -4 -10z"/>
<path d="M7705 440 c-3 -6 1 -7 9 -4 18 7 21 14 7 14 -6 0 -13 -4 -16 -10z"/>
<path d="M3390 400 c-9 -6 -10 -10 -3 -10 6 0 15 5 18 10 8 12 4 12 -15 0z"/>
<path d="M3210 390 c8 -5 26 -9 40 -9 l25 1 -25 8 c-14 4 -32 8 -40 9 -13 1
-13 0 0 -9z"/>
<path d="M3020 375 c-6 -8 -10 -21 -8 -31 2 -11 7 -6 15 15 13 34 11 38 -7 16z"/>
<path d="M3348 383 c7 -3 16 -2 19 1 4 3 -2 6 -13 5 -11 0 -14 -3 -6 -6z"/>
<path d="M3280 366 c-25 -6 -52 -15 -60 -21 -8 -5 -35 -13 -60 -17 -45 -7 -45
-7 9 -4 29 2 56 8 60 13 3 6 25 14 48 18 24 4 45 11 49 16 3 5 4 8 2 8 -2 -1
-23 -6 -48 -13z"/>
<path d="M3031 334 c0 -11 3 -14 6 -6 3 7 2 16 -1 19 -3 4 -6 -2 -5 -13z"/>
<path d="M2188 283 c7 -3 16 -2 19 1 4 3 -2 6 -13 5 -11 0 -14 -3 -6 -6z"/>
<path d="M1608 153 c6 -2 18 -2 25 0 6 3 1 5 -13 5 -14 0 -19 -2 -12 -5z"/>
<path d="M1528 143 c6 -2 18 -2 25 0 6 3 1 5 -13 5 -14 0 -19 -2 -12 -5z"/>
</g>
</svg>
